<svg width="89" height="20" viewBox="0 0 89 20" fill="none" xmlns="http://www.w3.org/2000/svg">
<path d="M8.2756 19.39C6.38627 19.39 4.80027 18.9913 3.5176 18.194C2.25227 17.3967 1.3596 16.2873 0.839601 14.866L4.8176 12.552C5.4936 14.164 6.6896 14.97 8.4056 14.97C9.82694 14.97 10.5376 14.5627 10.5376 13.748C10.5376 13.228 10.1303 12.7947 9.3156 12.448C9.03827 12.344 8.2756 12.11 7.0276 11.746C5.2596 11.2433 3.91627 10.5413 2.9976 9.64C2.07893 8.73867 1.6196 7.54267 1.6196 6.052C1.6196 4.37067 2.2176 3.01 3.4136 1.97C4.64427 0.929999 6.15227 0.409999 7.9376 0.409999C9.46293 0.409999 10.8149 0.773999 11.9936 1.502C13.1723 2.21267 14.0736 3.23533 14.6976 4.57L10.7976 6.858C10.2256 5.506 9.28094 4.83 7.9636 4.83C7.42627 4.83 7.01027 4.94267 6.7156 5.168C6.42093 5.376 6.2736 5.662 6.2736 6.026C6.2736 6.42467 6.4816 6.76267 6.8976 7.04C7.33093 7.31733 8.16293 7.638 9.3936 8.002C10.3123 8.27933 11.0229 8.522 11.5256 8.73C12.0976 8.97267 12.6869 9.302 13.2936 9.718C14.5589 10.55 15.1916 11.876 15.1916 13.696C15.1916 15.4813 14.5589 16.8767 13.2936 17.882C12.0283 18.8873 10.3556 19.39 8.2756 19.39ZM23.8486 5.636C25.2873 5.636 26.4399 6.13 27.3066 7.118C28.1906 8.08867 28.6326 9.458 28.6326 11.226V19H24.3166V11.772C24.3166 11.1133 24.1433 10.6107 23.7966 10.264C23.4499 9.9 22.9733 9.718 22.3666 9.718C21.6906 9.718 21.1619 9.926 20.7806 10.342C20.4166 10.7407 20.2346 11.3213 20.2346 12.084V19H15.9186V0.799999H20.2346V7.3C21.0146 6.19067 22.2193 5.636 23.8486 5.636ZM39.2178 7.196V6H43.5338V19H39.2178V17.804C38.3338 18.844 37.1032 19.364 35.5258 19.364C33.7752 19.364 32.3192 18.714 31.1578 17.414C29.9965 16.0967 29.4158 14.4587 29.4158 12.5C29.4158 10.524 29.9965 8.89467 31.1578 7.612C32.3192 6.29467 33.7752 5.636 35.5258 5.636C37.1032 5.636 38.3338 6.156 39.2178 7.196ZM34.5118 14.554C34.9972 15.074 35.6558 15.334 36.4878 15.334C37.3198 15.334 37.9785 15.074 38.4638 14.554C38.9665 14.0167 39.2178 13.332 39.2178 12.5C39.2178 11.668 38.9665 10.9833 38.4638 10.446C37.9785 9.926 37.3198 9.666 36.4878 9.666C35.6558 9.666 34.9972 9.926 34.5118 10.446C34.0092 10.9833 33.7578 11.668 33.7578 12.5C33.7578 13.332 34.0092 14.0167 34.5118 14.554ZM49.4419 6V8.418C49.6846 7.586 50.1613 6.936 50.8719 6.468C51.5999 5.98267 52.4233 5.74 53.3419 5.74V10.524C52.3539 10.368 51.4526 10.55 50.6379 11.07C49.8406 11.59 49.4419 12.4393 49.4419 13.618V19H45.1259V6H49.4419ZM62.0755 5.636C63.8088 5.636 65.2562 6.29467 66.4175 7.612C67.5962 8.92933 68.1855 10.5587 68.1855 12.5C68.1855 14.4413 67.5962 16.0793 66.4175 17.414C65.2388 18.714 63.7915 19.364 62.0755 19.364C60.4982 19.364 59.2675 18.844 58.3835 17.804V19H54.0675V0.799999H58.3835V7.196C59.2675 6.156 60.4982 5.636 62.0755 5.636ZM59.1375 14.554C59.6402 15.074 60.2988 15.334 61.1135 15.334C61.9282 15.334 62.5868 15.074 63.0895 14.554C63.5922 14.0167 63.8435 13.332 63.8435 12.5C63.8435 11.668 63.5922 10.9833 63.0895 10.446C62.5868 9.926 61.9282 9.666 61.1135 9.666C60.2988 9.666 59.6402 9.926 59.1375 10.446C58.6348 10.9833 58.3835 11.668 58.3835 12.5C58.3835 13.332 58.6348 14.0167 59.1375 14.554ZM73.4696 19H69.1536V0.0199995H73.4696V19ZM87.8409 14.086H78.8709C79.3042 15.1433 80.2749 15.672 81.7829 15.672C82.7016 15.672 83.4902 15.3687 84.1489 14.762L87.2689 16.946C86.0036 18.558 84.1402 19.364 81.6789 19.364C79.4776 19.364 77.7096 18.7227 76.3749 17.44C75.0576 16.14 74.3989 14.502 74.3989 12.526C74.3989 10.5673 75.0489 8.92933 76.3489 7.612C77.6489 6.29467 79.3042 5.636 81.3149 5.636C83.2562 5.636 84.8596 6.286 86.1249 7.586C87.3902 8.86867 88.0229 10.498 88.0229 12.474C88.0229 13.0807 87.9622 13.618 87.8409 14.086ZM78.8189 11.096H83.8109C83.4816 9.88267 82.6669 9.276 81.3669 9.276C80.0322 9.276 79.1829 9.88267 78.8189 11.096Z" fill="#48BFAA"/>
</svg>
