<svg width="65" height="65" viewBox="0 0 65 65" fill="none" xmlns="http://www.w3.org/2000/svg">
<circle cx="32.5" cy="32.5" r="32.5" fill="#F7E7FF"/>
<path d="M21.7396 22.8595C21.7396 22.8595 21.7144 22.6746 21.7233 22.7788C21.7204 22.7406 21.7174 22.7025 21.7159 22.6643C21.7144 22.6071 21.7159 22.5499 21.7174 22.4926C21.7174 22.5058 21.7367 22.3239 21.7248 22.3943C21.7456 22.2652 21.8167 22.0509 21.8716 21.9482C21.916 21.8646 21.9664 21.7809 22.0257 21.7061C21.9664 21.7795 22.0939 21.6356 22.0895 21.6415C22.1236 21.6063 22.1592 21.5711 22.1962 21.5373C22.3489 21.395 22.515 21.2659 22.6617 21.1176C23.0056 20.7713 23.1939 20.3472 23.2829 19.8733C23.3585 19.4682 23.4237 19.0265 23.5853 18.692C23.7898 18.2679 24.0522 17.8717 24.2983 17.4696C24.5681 17.0308 24.8365 16.5921 25.1063 16.1533C25.213 15.9787 25.3197 15.8055 25.4383 15.6397C25.4487 15.625 25.5228 15.5297 25.4709 15.5928C25.5006 15.5561 25.5302 15.5208 25.5629 15.4856C25.5955 15.4504 25.6251 15.4167 25.6592 15.3844C25.6785 15.3653 25.7911 15.267 25.7704 15.2831C25.7155 15.3257 25.8608 15.2244 25.849 15.2318C25.889 15.2083 25.929 15.1848 25.9705 15.1657C26.055 15.1261 25.8608 15.1877 26.0194 15.1481C26.0639 15.1364 26.1084 15.1232 26.1543 15.1144C26.2492 15.0938 26.0328 15.11 26.1973 15.11C26.2433 15.11 26.2892 15.107 26.3352 15.11C26.3589 15.11 26.4775 15.1232 26.3812 15.11C26.4464 15.1188 26.5101 15.1349 26.5724 15.1525C26.7533 15.2024 26.8807 15.2655 27.0779 15.4049C27.0008 15.3492 27.1446 15.4622 27.1431 15.4607C27.1861 15.4988 27.2276 15.5399 27.2691 15.581C27.3121 15.625 27.3522 15.6705 27.3922 15.716C27.4515 15.785 27.3981 15.716 27.4544 15.7967C27.5953 15.9978 27.7183 16.2076 27.8265 16.4263C27.9348 16.6449 28.0267 16.8591 28.0963 17.0235C28.1734 17.2069 28.2802 17.3522 28.4847 17.408C28.6893 17.4637 28.8791 17.4021 29.0258 17.2671C29.1563 17.1453 29.223 17.0925 29.4068 16.9898C29.4824 16.9472 29.561 16.9061 29.6425 16.8724C29.5773 16.9002 29.6796 16.8606 29.7003 16.8533C29.7374 16.8401 29.7745 16.8283 29.8115 16.8166C29.9049 16.7887 29.9998 16.7652 30.0962 16.7476C30.1065 16.7462 30.2103 16.73 30.1673 16.7359C30.1139 16.7418 30.2563 16.73 30.2681 16.7285C30.3556 16.7241 30.4445 16.7227 30.532 16.7285C30.5809 16.7315 30.6298 16.7344 30.6788 16.7388C30.6046 16.73 30.7025 16.7432 30.7306 16.7491C31.1027 16.8195 31.2762 16.9061 31.5919 17.116C31.6127 17.1292 31.6586 17.1658 31.6127 17.1306C31.6498 17.16 31.6838 17.1893 31.7194 17.2201C31.7817 17.2759 31.841 17.3346 31.8988 17.3948C31.9299 17.4285 31.9611 17.4637 31.9907 17.499C32.053 17.5738 31.927 17.3992 32.0218 17.5415C32.0737 17.6193 32.1227 17.6956 32.1686 17.7763C32.3317 18.0668 32.8105 18.1578 33.0418 17.8878C33.4198 17.4476 33.737 17.2055 34.2514 16.9531C34.3167 16.9208 34.3819 16.89 34.4501 16.8621C34.3597 16.9002 34.5524 16.8239 34.5702 16.8181C34.6902 16.7755 34.8118 16.7374 34.9348 16.7051C35.0757 16.6684 35.218 16.6405 35.3618 16.6156C35.4285 16.6053 35.4329 16.6053 35.3766 16.6126C35.4122 16.6082 35.4493 16.6038 35.4848 16.6009C35.5486 16.595 35.6108 16.5906 35.6746 16.5877C35.811 16.5803 35.9474 16.5803 36.0823 16.5877C36.1549 16.5906 36.2275 16.5965 36.2987 16.6038C36.3343 16.6068 36.3713 16.6112 36.4069 16.6156C36.358 16.6097 36.3535 16.6097 36.3936 16.6156C36.5285 16.639 36.6619 16.6654 36.7923 16.7007C36.8961 16.7285 37.0888 16.7946 37.1333 16.8137C37.3231 16.8958 37.5602 17.0484 37.6952 17.1805C37.7381 17.2231 37.7811 17.2671 37.8182 17.3141C37.753 17.2319 37.8656 17.3948 37.876 17.4138C37.8923 17.4432 37.9086 17.474 37.9234 17.5048C37.9012 17.4505 37.9012 17.4549 37.9234 17.5151C37.9412 17.5826 37.959 17.6472 37.9724 17.7161C38.0228 18.0096 38.3875 18.174 38.6558 18.1006C38.9686 18.0155 39.0946 17.7176 39.0442 17.4241C38.8544 16.3382 37.6966 15.716 36.6886 15.5546C35.6805 15.3932 34.5642 15.5546 33.6155 16.0418C33.1011 16.3059 32.6282 16.6743 32.2531 17.1115L33.1263 17.2231C32.686 16.438 31.8706 15.829 30.9693 15.6779C29.9761 15.512 28.9739 15.8055 28.2372 16.4894L29.1667 16.7315C28.7768 15.8055 28.338 14.8033 27.3951 14.3043C26.9208 14.0534 26.3901 13.9492 25.8593 14.0549C25.3687 14.1532 24.955 14.4804 24.6511 14.8605C24.3265 15.267 24.0715 15.7219 23.8002 16.1636C23.5067 16.6434 23.2073 17.1204 22.9182 17.6017C22.6499 18.0507 22.4067 18.5276 22.303 19.0427C22.2585 19.2613 22.2333 19.4829 22.1858 19.7001C22.1606 19.816 22.1325 19.9334 22.088 20.0435C22.1162 19.973 22.0658 20.086 22.0569 20.1007C22.0465 20.1198 21.9561 20.2592 21.9931 20.2093C21.8375 20.4133 21.6181 20.5659 21.4298 20.739C21.2252 20.9283 21.0414 21.1485 20.9095 21.3935C20.6159 21.9379 20.5389 22.5499 20.6634 23.1515C20.7242 23.4421 21.0711 23.6108 21.3468 23.536C21.6522 23.4523 21.796 23.1515 21.7352 22.8595H21.7396Z" fill="#2E3553"/>
<path d="M33.8779 25.0621C34.4115 24.5881 34.9452 24.1156 35.4789 23.6416C35.7487 23.4024 35.6612 22.949 35.3662 22.7773C35.3247 22.7538 35.2847 22.7274 35.2447 22.701C35.341 22.7656 35.2299 22.6863 35.2091 22.6687C35.1735 22.6364 35.1439 22.6012 35.1083 22.5675C35.0193 22.4838 35.1394 22.6247 35.0772 22.5308C35.0238 22.4515 34.9778 22.3708 34.9334 22.2857C34.8667 22.1595 34.9556 22.3782 34.9171 22.2417C34.9037 22.1962 34.8874 22.1522 34.8755 22.1052C34.8637 22.0583 34.8533 22.0128 34.8444 21.9658C34.8148 21.8191 34.8444 22.0729 34.8415 21.9233C34.8385 21.8279 34.8415 21.7354 34.8459 21.6401C34.84 21.7648 34.8503 21.6254 34.8563 21.6004C34.8667 21.5549 34.8785 21.5094 34.8933 21.464C34.8993 21.4449 34.96 21.3143 34.9067 21.4199C34.9289 21.3774 34.9497 21.3348 34.9749 21.2937C34.9882 21.2717 35.0697 21.1573 34.9971 21.2497C35.0268 21.213 35.0594 21.1778 35.092 21.1441C35.1246 21.1103 35.1617 21.0795 35.1958 21.0472C35.2788 20.9724 35.129 21.0795 35.2358 21.0193C35.3203 20.9724 35.3988 20.921 35.4878 20.8829C35.3974 20.921 35.4982 20.8829 35.5338 20.8711C35.5797 20.8564 35.6257 20.8432 35.6731 20.833C35.7205 20.8227 35.7665 20.8124 35.8139 20.8065C35.7146 20.8212 35.8124 20.8095 35.8569 20.808C35.8969 20.8065 35.937 20.8065 35.977 20.808C35.9933 20.808 36.1445 20.8198 36.0704 20.8109C35.9963 20.8021 36.143 20.8256 36.1608 20.83C36.2068 20.8403 36.2527 20.855 36.2987 20.8682C36.3209 20.8755 36.3432 20.8829 36.3654 20.8917C36.3135 20.8696 36.3061 20.8667 36.3417 20.8829C36.3921 20.9078 36.441 20.9342 36.4884 20.9636C36.6975 21.0912 36.991 21.0472 37.1615 20.877C37.3438 20.6965 37.3586 20.4309 37.2489 20.2108C37.2208 20.1521 37.2178 20.1477 37.2386 20.1961C37.2252 20.1638 37.2134 20.1301 37.203 20.0963C37.1822 20.0288 37.1644 19.9598 37.1541 19.8894C37.1718 19.9995 37.1511 19.794 37.1511 19.7705C37.1511 19.75 37.1659 19.5402 37.1511 19.6517C37.16 19.5812 37.1778 19.5123 37.1971 19.4433C37.203 19.4228 37.2786 19.2364 37.2356 19.3259C37.2667 19.2613 37.3053 19.2026 37.3394 19.141C37.3779 19.0882 37.3794 19.0823 37.3468 19.1234C37.369 19.0955 37.3927 19.0691 37.4179 19.0427C37.4313 19.028 37.581 18.893 37.5069 18.9532C37.5632 18.9092 37.6255 18.8725 37.6877 18.8387C37.7189 18.8211 37.7515 18.805 37.7841 18.7903C37.7337 18.8108 37.7381 18.8094 37.8004 18.7859C37.8686 18.7639 37.9368 18.7433 38.0079 18.7272C38.0435 18.7199 38.0776 18.7125 38.1132 18.7081C38.0539 18.7169 38.0583 18.7184 38.1265 18.7111C38.1977 18.7111 38.2689 18.7111 38.3415 18.7125C38.4082 18.7184 38.4127 18.7184 38.3534 18.7125C38.3889 18.7184 38.423 18.7257 38.4586 18.7345C38.4779 18.7389 38.6721 18.8035 38.5802 18.7653C38.8188 18.8651 39.0545 18.8622 39.2532 18.6788C39.3006 18.6362 39.3481 18.5937 39.397 18.5526C39.4177 18.535 39.4385 18.5173 39.4607 18.5012C39.4518 18.5085 39.4059 18.5423 39.4578 18.5056C39.5615 18.4322 39.6683 18.3633 39.7795 18.3002C39.8832 18.2429 39.9885 18.1886 40.0982 18.1432C40.0211 18.1754 40.1708 18.1167 40.1945 18.1094C40.2627 18.0845 40.3324 18.0624 40.4036 18.0434C40.5177 18.0111 40.6334 17.9832 40.7505 17.9627C40.7771 17.9583 40.9091 17.9377 40.8201 17.9495C40.8928 17.9406 40.9654 17.9333 41.0381 17.9289C41.1567 17.9216 41.2752 17.9201 41.3938 17.9245C41.4487 17.926 41.5035 17.9304 41.5584 17.9348C41.5955 17.9377 41.631 17.9421 41.6681 17.9451C41.76 17.9553 41.591 17.9318 41.6829 17.948C41.926 17.9905 42.1662 18.0507 42.393 18.1446C42.31 18.1094 42.4627 18.1784 42.4834 18.1901C42.5324 18.2136 42.5798 18.24 42.6272 18.2664C42.7443 18.3325 42.8585 18.4058 42.9667 18.4851C42.9015 18.4366 43.0053 18.5173 43.023 18.532C43.0705 18.5716 43.1179 18.6142 43.1639 18.6568C43.2558 18.7419 43.3433 18.8328 43.4248 18.9282C43.4426 18.9488 43.5182 19.0412 43.5004 19.0177C43.4856 18.9987 43.5641 19.1073 43.5834 19.1351C43.6546 19.2393 43.7198 19.3465 43.7791 19.4565C43.8132 19.5196 43.8443 19.5842 43.8755 19.6487C43.8755 19.6502 43.9125 19.7309 43.8903 19.681C43.871 19.6355 43.9095 19.7309 43.9125 19.7397C43.9599 19.8645 44.0015 19.9921 44.0356 20.1227C44.0533 20.1917 44.0682 20.2621 44.0815 20.3311C44.086 20.3575 44.0904 20.3839 44.0949 20.4103C44.1052 20.472 44.0904 20.3472 44.1008 20.45C44.1141 20.5923 44.1201 20.7346 44.1171 20.8785C44.1126 21.0971 44.292 21.3715 44.5248 21.4097C44.6359 21.4273 44.7442 21.4522 44.8509 21.4874C44.8687 21.4933 45.0036 21.5461 44.9532 21.5241C44.9028 21.5021 45.0332 21.5652 45.0495 21.574C45.1029 21.6019 45.1548 21.6327 45.2052 21.665C45.223 21.6767 45.3445 21.7618 45.26 21.6987C45.3416 21.7604 45.4187 21.8323 45.4898 21.9057C45.5254 21.9423 45.5595 21.982 45.5936 22.0201C45.6974 22.1375 45.5476 21.9409 45.6321 22.0715C45.6885 22.1581 45.7433 22.2432 45.7908 22.3356C45.8026 22.3591 45.8515 22.4794 45.8174 22.3914C45.8352 22.4398 45.853 22.4868 45.8678 22.5367C45.8827 22.5865 45.896 22.635 45.9064 22.6849C45.9138 22.7186 45.9197 22.7509 45.9257 22.7846C45.9197 22.7318 45.9183 22.7245 45.9227 22.7656C45.9316 22.8698 45.9346 22.9725 45.9271 23.0767C45.9257 23.1031 45.9227 23.128 45.9197 23.1544C45.9271 23.1031 45.9286 23.0972 45.9212 23.1368C45.9108 23.197 45.8975 23.2557 45.8827 23.3144C45.8693 23.3643 45.8545 23.4142 45.8367 23.4641C45.8293 23.4846 45.7715 23.6211 45.8145 23.5257C45.7715 23.6211 45.7211 23.7121 45.6648 23.8001C45.6366 23.8441 45.6069 23.8867 45.5758 23.9292C45.6366 23.8471 45.5343 23.9762 45.5299 23.9806C45.4602 24.0584 45.3831 24.1288 45.3045 24.1993C45.2126 24.28 45.3445 24.1802 45.2497 24.2389C45.2052 24.2668 45.1622 24.2961 45.1163 24.3225C45.0629 24.3533 45.0095 24.3812 44.9532 24.4062C44.9176 24.4223 44.9221 24.4208 44.965 24.4018C44.9324 24.415 44.8983 24.4252 44.8657 24.437C44.6419 24.5118 44.4462 24.7187 44.458 24.9682C44.4714 25.2309 44.4744 25.4935 44.4625 25.7562C44.4566 25.8824 44.4492 26.0101 44.4373 26.1363C44.4314 26.2038 44.424 26.2727 44.4151 26.3402C44.4062 26.4077 44.4136 26.352 44.4151 26.3388C44.4076 26.3872 44.4002 26.4342 44.3913 26.4826C44.3469 26.7394 44.2846 26.9932 44.2031 27.2398C44.1215 27.4863 44.0682 27.6125 43.9244 27.8664C43.8636 27.9735 43.7969 28.0792 43.7242 28.1804C43.6516 28.2817 43.6338 28.3037 43.5286 28.4152C43.4544 28.4944 43.3744 28.5693 43.2899 28.6397C43.2795 28.6485 43.1965 28.7146 43.2469 28.6749C43.2928 28.6397 43.2261 28.6896 43.2217 28.6925C43.1654 28.7307 43.1105 28.7688 43.0512 28.8055C42.9563 28.8628 42.86 28.9156 42.7592 28.964C42.7355 28.9743 42.7132 28.986 42.6895 28.9963C42.6984 28.9919 42.7651 28.9669 42.7043 28.9904C42.6406 29.0154 42.5768 29.0389 42.5131 29.0594C42.4093 29.0931 42.3026 29.121 42.1944 29.143C42.1454 29.1533 42.095 29.1621 42.0461 29.1695C42.1588 29.1518 41.9809 29.1739 41.9453 29.1768C41.8208 29.1841 41.6992 29.1797 41.5747 29.1724C41.551 29.1709 41.5258 29.168 41.5021 29.1651C41.6192 29.1768 41.5065 29.1651 41.4813 29.1592C41.4265 29.1474 41.3701 29.1357 41.3153 29.121C41.253 29.1034 41.1922 29.0829 41.13 29.0623C41.1226 29.0594 41.0484 29.0286 41.1062 29.0535C41.1715 29.0829 41.0529 29.0256 41.041 29.0198C40.9906 28.9934 40.9402 28.9655 40.8928 28.9347C40.8646 28.9171 40.8379 28.898 40.8112 28.8804C40.7371 28.829 40.9076 28.9611 40.786 28.8598C40.5993 28.7057 40.3339 28.6368 40.113 28.7732C39.4326 29.1944 38.5757 29.281 37.8627 28.9758C37.5321 28.8349 37.2593 28.6338 36.9984 28.3477C36.9673 28.3139 36.9376 28.2787 36.908 28.245C36.7998 28.1173 36.9539 28.3213 36.8605 28.1833C36.8042 28.0997 36.7479 28.0175 36.699 27.9309C36.65 27.8444 36.6026 27.7548 36.564 27.6624C36.6026 27.7519 36.5403 27.5934 36.5403 27.5905C36.5225 27.5391 36.5062 27.4863 36.4899 27.4349C36.3506 26.9668 35.7339 26.9096 35.4745 27.3029C35.4433 27.3513 35.4107 27.3983 35.3766 27.4438C35.3618 27.4643 35.347 27.4834 35.3321 27.5024C35.3692 27.4555 35.3662 27.457 35.3277 27.5054C35.2625 27.5788 35.1987 27.6521 35.129 27.7211C35.0534 27.7959 34.9734 27.8649 34.8933 27.9339C34.8741 27.95 34.8563 27.9647 34.837 27.9794C34.8844 27.9427 34.883 27.9441 34.8326 27.9823C34.7925 28.0102 34.7525 28.0395 34.7125 28.0659C34.5346 28.1848 34.3463 28.2831 34.1521 28.3726C34.0439 28.4225 34.2248 28.3477 34.1032 28.3932C34.0572 28.4108 34.0113 28.4284 33.9638 28.4445C33.863 28.4798 33.7593 28.5106 33.6555 28.537C33.5517 28.5634 33.4465 28.5854 33.3412 28.6045C33.3145 28.6089 33.1678 28.628 33.2938 28.6133C33.2449 28.6192 33.1959 28.6236 33.147 28.628C32.9335 28.6456 32.7201 28.6456 32.5066 28.628C32.4918 28.628 32.3287 28.6074 32.4592 28.625C32.4102 28.6177 32.3613 28.6104 32.3139 28.6016C32.2012 28.581 32.09 28.5546 31.9789 28.5238C31.884 28.4959 31.7921 28.4636 31.7002 28.4299C31.5786 28.3858 31.758 28.4607 31.6512 28.4093C31.5919 28.38 31.5326 28.3521 31.4748 28.3213C31.1858 28.1687 30.9026 28.2729 30.7143 28.5194C30.7573 28.4636 30.6328 28.6148 30.6195 28.6294C30.575 28.6793 30.529 28.7278 30.4816 28.7762C30.3808 28.8774 30.274 28.9743 30.1599 29.0623C30.2266 29.0095 30.0902 29.1122 30.0873 29.1137C30.025 29.1577 29.9598 29.2003 29.8945 29.2399C29.7804 29.3103 29.6618 29.3749 29.5402 29.4321C29.5061 29.4483 29.4706 29.4644 29.435 29.4806C29.4587 29.4708 29.4587 29.4708 29.435 29.4806C29.3727 29.5055 29.309 29.529 29.2452 29.551C29.1177 29.5935 28.9888 29.6302 28.8568 29.6596C28.7812 29.6757 28.7056 29.6904 28.63 29.7036C28.4506 29.7344 28.7308 29.6977 28.5485 29.7139C28.4047 29.7256 28.2609 29.7329 28.1171 29.73C28.0504 29.7285 27.9852 29.7256 27.9184 29.7197C27.8814 29.7168 27.8428 29.7139 27.8058 29.7095C27.8592 29.7183 27.8532 29.7168 27.785 29.7065C27.6546 29.6845 27.5241 29.6581 27.3966 29.6244C27.1076 29.5466 26.9801 29.4967 26.7384 29.369C26.6213 29.3074 26.5072 29.2399 26.3975 29.1665C26.3352 29.1254 26.2715 29.0814 26.2122 29.0359C26.2789 29.0887 26.1469 28.9787 26.1484 28.9802C26.0476 28.895 25.9527 28.8041 25.8608 28.7087C25.8089 28.6544 25.76 28.5972 25.7111 28.5399C25.6696 28.4886 25.6637 28.4812 25.6933 28.5194C25.6711 28.49 25.6488 28.4592 25.6266 28.4284C25.3657 28.0659 24.9313 28.0894 24.666 28.4284C24.7401 28.3345 24.6363 28.4592 24.6289 28.468C24.6067 28.493 24.5859 28.5164 24.5637 28.5399C24.5074 28.5986 24.4495 28.6559 24.3888 28.7101C24.365 28.7322 24.1857 28.873 24.2746 28.8085C24.196 28.8657 24.1145 28.92 24.0315 28.9714C23.9618 29.0139 23.8907 29.0535 23.818 29.0902C23.781 29.1093 23.7439 29.1254 23.7083 29.143C23.6831 29.1548 23.5823 29.1959 23.6831 29.1562C23.5156 29.2238 23.3436 29.278 23.1687 29.3191C23.0887 29.3382 23.0086 29.3529 22.9271 29.3676C22.9063 29.372 22.8203 29.3866 22.9271 29.3676C22.8781 29.3734 22.8292 29.3793 22.7803 29.3822C22.6009 29.3969 22.4201 29.3984 22.2392 29.3852C22.2066 29.3822 22.174 29.3793 22.1414 29.3764C21.9813 29.3661 22.2526 29.3984 22.0939 29.3705C22.0213 29.3573 21.9487 29.3455 21.8775 29.3294C21.71 29.2913 21.5469 29.2414 21.3883 29.1783C21.4906 29.2193 21.2919 29.1298 21.2549 29.1108C21.1822 29.0726 21.1111 29.033 21.0429 28.989C20.8769 28.8833 20.7849 28.807 20.6189 28.6559C20.312 28.3756 20.0348 28.063 19.728 27.7813C19.4033 27.4834 19.0475 27.2207 18.6443 27.0387C18.2411 26.8568 17.8556 26.7394 17.4598 26.5941C17.1678 26.487 16.8105 26.3241 16.5867 26.1084C16.5318 26.0556 16.4799 25.9983 16.4325 25.9396C16.5111 26.035 16.3821 25.8589 16.3628 25.8281C16.3228 25.7635 16.2902 25.696 16.2561 25.6271C16.1909 25.495 16.2857 25.7313 16.2427 25.5904C16.2294 25.5464 16.2131 25.5038 16.1997 25.4598C16.1775 25.3864 16.1597 25.3116 16.1449 25.2367C16.139 25.2059 16.1345 25.1766 16.1286 25.1458C16.1508 25.2822 16.1286 25.1325 16.1286 25.1091C16.1227 25.0328 16.1212 24.955 16.1212 24.8787C16.1212 24.8479 16.1227 24.817 16.1241 24.7862C16.1256 24.7598 16.1508 24.5632 16.1286 24.7041C16.1538 24.5514 16.1968 24.4091 16.2427 24.2609C16.2502 24.2389 16.2828 24.1626 16.2383 24.2653C16.2561 24.2242 16.2768 24.1831 16.2976 24.142C16.3361 24.0672 16.3821 23.9982 16.4266 23.9278C16.4429 23.9028 16.5081 23.8251 16.4355 23.9116C16.4592 23.8823 16.4844 23.8529 16.5111 23.8251C16.5629 23.7678 16.6193 23.7165 16.6771 23.6651C16.7453 23.6049 16.5704 23.737 16.7142 23.6358C16.7438 23.6137 16.7749 23.5932 16.8061 23.5727C16.8995 23.511 16.9943 23.4538 17.0907 23.3966C17.445 23.1897 17.8215 22.9857 18.1002 22.679C18.7214 21.9981 18.6532 21.0912 18.9675 20.2812C19.0045 20.1844 18.9126 20.3942 18.9867 20.2342C19.0105 20.1844 19.0342 20.1345 19.0594 20.0846C19.1098 19.9863 19.1646 19.8909 19.2239 19.797C19.2832 19.703 19.3455 19.6121 19.4137 19.524C19.3618 19.5915 19.4344 19.5005 19.4478 19.4844C19.4893 19.4345 19.5323 19.3875 19.5768 19.3391C19.6464 19.2657 19.7191 19.1938 19.7947 19.1263C19.8288 19.0955 19.8629 19.0647 19.8984 19.0354C19.9059 19.0295 20.0304 18.9297 19.9592 18.984C20.1371 18.849 20.3313 18.7331 20.5329 18.6347C20.8813 18.466 21.3601 18.3559 21.7515 18.3427C22.2511 18.3251 22.638 18.3941 23.1242 18.5834C23.3955 18.689 23.7469 18.4675 23.8076 18.1989C23.8803 17.882 23.7098 17.6354 23.4192 17.5224C22.5046 17.1644 21.4343 17.1438 20.5062 17.4637C19.5782 17.7836 18.8504 18.3647 18.3241 19.1483C18.078 19.5137 17.8897 19.929 17.7741 20.3531C17.6585 20.7772 17.6422 21.2424 17.4687 21.6547C17.5043 21.5696 17.4228 21.7398 17.4257 21.7354C17.4065 21.7692 17.3857 21.8029 17.3649 21.8367C17.2804 21.9732 17.4198 21.7956 17.3145 21.9013C17.276 21.9394 17.2389 21.979 17.1989 22.0157C17.1722 22.0392 17.1441 22.0627 17.1159 22.0861C17.196 22.0201 17.0551 22.1287 17.0522 22.1302C16.9602 22.1933 16.8654 22.2505 16.7705 22.3063C16.3969 22.5264 16.0011 22.7377 15.7076 23.0635C14.5883 24.3049 14.8552 26.3813 16.2931 27.2589C16.7008 27.5069 17.1633 27.6551 17.6125 27.8121C18.0128 27.9515 18.33 28.0645 18.6947 28.3433C18.6235 28.289 18.7733 28.4093 18.7673 28.4035C18.8133 28.4416 18.8563 28.4798 18.9008 28.5194C18.9734 28.5854 19.046 28.6544 19.1157 28.7234C19.2862 28.8906 19.4493 29.0623 19.6197 29.2296C19.9296 29.5348 20.2661 29.8298 20.6515 30.0382C21.4654 30.4784 22.4156 30.5826 23.3184 30.408C24.2212 30.2333 25.0514 29.7168 25.6251 28.9816H24.6645C25.2782 29.8342 26.1736 30.4652 27.2084 30.7117C28.2431 30.9583 29.3638 30.7968 30.3037 30.2774C30.8463 29.9765 31.2969 29.5627 31.6705 29.0755L30.91 29.2736C32.7898 30.2598 35.2684 29.6229 36.4321 27.862L35.4166 27.7299C35.7146 28.7336 36.4573 29.5759 37.4328 29.9853C38.4764 30.4226 39.7113 30.3214 40.6734 29.7271L40.0003 29.6405C40.9521 30.427 42.2329 30.4329 43.321 29.9164C44.4091 29.3998 45.1266 28.2582 45.3994 27.0901C45.561 26.3975 45.604 25.6799 45.5699 24.9711L45.1622 25.5023C46.2918 25.1252 47.1531 23.9762 47.036 22.77C46.9189 21.5637 46.0146 20.5468 44.8242 20.3546L45.2319 20.8858C45.2586 19.703 44.7101 18.5027 43.7895 17.7455C42.8111 16.9399 41.5332 16.6596 40.2954 16.9443C39.6134 17.1013 38.9819 17.4417 38.469 17.9128L39.142 17.8262C38.2985 17.4725 37.2845 17.5958 36.6352 18.2767C35.9933 18.9502 35.8821 19.9598 36.2928 20.7772L37.0533 20.0244C36.0556 19.4154 34.625 19.7515 34.0172 20.7478C33.4094 21.7442 33.8052 23.1515 34.8103 23.737L34.6977 22.8727C34.164 23.3467 33.6303 23.8192 33.0966 24.2932C32.8728 24.4913 32.892 24.8699 33.0966 25.0709C33.319 25.291 33.6585 25.2705 33.8823 25.0709L33.8779 25.0621Z" fill="#2E3553"/>
<path d="M31.4378 18.7448C30.2148 18.7727 28.9043 19.028 28.1838 20.1095C27.8666 20.5864 27.7331 21.1807 27.8592 21.7413C27.9941 22.3474 28.464 22.7876 28.9295 23.1647C29.1504 23.3437 29.5017 23.4054 29.7152 23.1647C29.7715 23.1001 29.8293 23.037 29.8856 22.9725C30.0784 22.7568 30.1169 22.4031 29.8856 22.1947C29.6751 22.004 29.3045 21.9644 29.1 22.1947C29.0436 22.2593 28.9858 22.3224 28.9295 22.387H29.7152C29.5269 22.2344 29.3371 22.0788 29.1741 21.8998C29.1622 21.8866 29.0659 21.7677 29.1207 21.8411C29.0881 21.7971 29.057 21.7516 29.0303 21.7031C29.0303 21.7017 28.9532 21.5505 28.9888 21.6371C28.9695 21.5931 28.9547 21.5447 28.9428 21.4977C28.9324 21.4566 28.9176 21.3539 28.928 21.4537C28.9235 21.4053 28.9206 21.3583 28.9206 21.3099C28.9206 21.2615 28.9235 21.213 28.928 21.1661C28.9161 21.2937 28.9399 21.125 28.9473 21.0986C28.9591 21.0516 28.9739 21.0047 28.9888 20.9577C28.9962 20.9342 29.0051 20.9107 29.014 20.8887C28.9903 20.9445 28.9917 20.943 29.0184 20.8843C29.0673 20.7963 29.1163 20.7097 29.1726 20.6261C29.2601 20.4969 29.1059 20.695 29.2097 20.5776C29.2438 20.5395 29.2764 20.5028 29.3134 20.4661C29.3505 20.4294 29.3875 20.3986 29.4246 20.3634C29.5136 20.2783 29.3757 20.3883 29.4706 20.3267C29.5758 20.2592 29.6796 20.1946 29.7923 20.1403C29.8189 20.1271 29.8441 20.1154 29.8708 20.1036C29.8367 20.1169 29.8367 20.1169 29.8723 20.1036C29.9361 20.0787 29.9998 20.0567 30.065 20.0361C30.1777 20.0009 30.2904 19.9716 30.406 19.9466C30.4638 19.9349 30.5216 19.9232 30.5794 19.9129C30.5779 19.9129 30.7558 19.8865 30.6669 19.8982C30.9219 19.8645 31.1813 19.8542 31.4378 19.8483C31.7283 19.841 32.007 19.6003 31.9937 19.298C31.9803 18.9957 31.7491 18.7404 31.4378 18.7477V18.7448Z" fill="#2E3553"/>
<path d="M24.835 24.7818C24.835 24.7627 24.8439 24.5925 24.8379 24.6483C24.832 24.7041 24.8602 24.5397 24.8661 24.5192C24.8794 24.4693 24.8958 24.4208 24.9121 24.3709C24.955 24.2315 24.8661 24.4399 24.9373 24.3122C24.9669 24.2594 24.9936 24.2051 25.0262 24.1538C25.0381 24.1362 25.1389 23.9967 25.0751 24.076C25.1404 23.9953 25.216 23.9234 25.2916 23.8529C25.3805 23.7708 25.2501 23.872 25.3434 23.8119C25.3953 23.7796 25.4443 23.7458 25.4976 23.7179C25.5184 23.7062 25.677 23.6387 25.5777 23.6768C25.6266 23.6592 25.6755 23.6431 25.7259 23.6299C25.8949 23.5844 26.0639 23.5844 26.2077 23.6182C26.2581 23.6299 26.31 23.6431 26.3589 23.6592C26.3826 23.6666 26.5042 23.7223 26.4197 23.6798C26.4746 23.7062 26.5279 23.7341 26.5798 23.7664C26.602 23.7796 26.6243 23.7942 26.645 23.8089C26.602 23.7737 26.605 23.7766 26.6554 23.8177C26.694 23.8529 26.7295 23.8882 26.7666 23.9248C26.8496 24.0056 26.7518 23.8823 26.8081 23.9747C26.8392 24.0246 26.8689 24.0731 26.8941 24.1259C26.9104 24.1611 26.9089 24.1552 26.8852 24.1068C26.8956 24.1376 26.9059 24.1684 26.9148 24.2007C26.9282 24.2477 26.9386 24.2961 26.946 24.3445C26.9297 24.2183 26.9415 24.3783 26.9415 24.3944C26.9415 24.4428 26.9386 24.4927 26.9356 24.5412C26.9475 24.4135 26.9163 24.6087 26.9089 24.6351C26.9015 24.6615 26.8481 24.7906 26.897 24.685C26.8763 24.729 26.8541 24.7716 26.8289 24.8126C26.8096 24.8449 26.7369 24.9227 26.8007 24.8567C26.7844 24.8728 26.6391 25.0019 26.7325 24.933C26.5116 25.0973 26.3856 25.3497 26.5057 25.6197C26.6139 25.8648 26.8896 26.0174 27.1609 25.9382C27.3596 25.8809 27.5597 25.8178 27.7643 25.787C27.9125 25.765 28.0459 25.7679 28.1512 25.7944C28.1957 25.8046 28.2401 25.8178 28.2831 25.834C28.3661 25.8648 28.2253 25.8002 28.2994 25.8442C28.338 25.8663 28.3795 25.8868 28.4136 25.9147C28.3647 25.8751 28.4077 25.9103 28.4225 25.9323C28.5174 26.0732 28.3973 25.8868 28.4492 25.969C28.4907 26.0365 28.4299 25.8663 28.467 26.0042C28.4758 26.0379 28.4862 26.0702 28.4907 26.104C28.4773 26.0233 28.4847 26.0952 28.4833 26.1377C28.4833 26.1495 28.4699 26.2507 28.4803 26.195C28.4922 26.1319 28.4551 26.2801 28.4566 26.2771C28.4462 26.3109 28.4358 26.3461 28.421 26.3784C28.4521 26.308 28.4091 26.3916 28.3943 26.4165C28.3335 26.5207 28.255 26.6058 28.1719 26.6675C27.8651 26.8979 27.5997 26.9712 27.2336 27.093L27.917 27.4775C27.8932 27.4129 27.868 27.3469 27.8443 27.2823C27.7406 27.0035 27.4678 26.8142 27.1609 26.8979C26.8896 26.9712 26.6673 27.2941 26.7725 27.5744C26.7962 27.6389 26.8214 27.705 26.8452 27.7695C26.9445 28.0351 27.2247 28.2567 27.5286 28.154C28.04 27.9823 28.5485 27.7945 28.9621 27.4408C29.3757 27.0872 29.6292 26.5589 29.5906 26.0335C29.5462 25.4231 29.1444 24.9755 28.5752 24.7701C28.0059 24.5646 27.4085 24.7158 26.8615 24.8743L27.2899 25.8795C27.7569 25.5332 28.0222 25.046 28.0489 24.4634C28.0726 23.9322 27.8443 23.3863 27.4381 23.0356C26.562 22.2799 25.2501 22.3415 24.4258 23.1427C23.984 23.5712 23.7246 24.1655 23.7202 24.7774C23.7187 25.065 23.9781 25.3409 24.2761 25.3277C24.5741 25.3145 24.829 25.0856 24.832 24.7774L24.835 24.7818Z" fill="#2E3553"/>
<path d="M39.4845 24.3445C39.4845 24.2858 39.4934 24.2976 39.4785 24.3445C39.4815 24.3372 39.5289 24.2213 39.4993 24.2726C39.4696 24.324 39.526 24.2389 39.5304 24.2315C39.5615 24.1846 39.4845 24.2756 39.5556 24.2081C39.5853 24.1802 39.6045 24.1626 39.5601 24.1963C39.5867 24.1758 39.6164 24.1582 39.6446 24.142C39.652 24.1376 39.7587 24.0877 39.732 24.098C39.7024 24.1083 39.7958 24.0804 39.8061 24.0775C40.11 23.9894 40.4421 23.9689 40.8172 23.9586C40.9002 23.9557 40.9847 23.9557 41.0677 23.9586C41.1196 23.9615 41.1715 23.963 41.2234 23.9703C41.1655 23.963 41.2441 23.9747 41.2604 23.9777C41.3494 23.9967 41.4383 24.0188 41.5243 24.051C41.6029 24.0804 41.4546 24.0129 41.5273 24.0554C41.5628 24.076 41.5999 24.0965 41.6355 24.1171C41.6711 24.1376 41.6888 24.1538 41.6444 24.1171C41.677 24.142 41.7066 24.1714 41.7363 24.2007C41.76 24.2242 41.7822 24.2477 41.803 24.2726C41.8564 24.3343 41.763 24.2081 41.803 24.2785C41.8223 24.3137 41.843 24.3475 41.8623 24.3827C41.8386 24.3357 41.846 24.3328 41.8578 24.3827C41.8623 24.4003 41.8756 24.5221 41.8742 24.4487C41.8727 24.3709 41.8682 24.5206 41.8682 24.5192C41.8549 24.8068 42.1336 25.0826 42.4241 25.0694C42.7369 25.0562 42.9652 24.8273 42.9801 24.5192C43.0053 23.9879 42.6984 23.5242 42.2774 23.2219C41.8564 22.9197 41.3212 22.8404 40.8157 22.8566C40.3102 22.8727 39.7202 22.9079 39.2354 23.1178C38.7506 23.3276 38.3771 23.7972 38.3711 24.3416C38.3682 24.6292 38.6291 24.9051 38.9271 24.8919C39.225 24.8787 39.48 24.6498 39.483 24.3416L39.4845 24.3445Z" fill="#2E3553"/>
<path d="M18.0128 28.3741C18.2188 29.3793 18.4249 30.386 18.631 31.3911C18.837 32.3963 19.0401 33.359 19.1854 34.3524C19.3307 35.3459 19.3677 36.3159 19.3648 37.302C19.3618 38.2881 19.3425 39.3094 19.4285 40.3117C19.5945 42.2678 20.0615 44.1725 20.3536 46.1095C20.4899 47.0149 20.6115 47.9233 20.8279 48.8155C20.8783 49.0224 20.9332 49.2278 20.994 49.4303C21.0622 49.6548 21.1259 49.9014 21.2534 50.1009C21.4891 50.4722 21.8894 50.6527 22.3267 50.6498C22.5135 50.6483 22.7003 50.616 22.8841 50.5881C22.9641 50.5764 23.0442 50.5632 23.1228 50.55C23.231 50.5338 23.1405 50.5485 23.1198 50.55C23.2013 50.5426 23.2814 50.5353 23.3629 50.528C23.8655 50.4883 24.3695 50.4561 24.8735 50.4296C25.8934 50.3753 26.9134 50.3475 27.9333 50.3357C28.9532 50.324 29.9983 50.3328 31.0316 50.3519C32.0648 50.3709 33.0462 50.3724 34.0483 50.4355C34.7125 50.4781 35.43 50.6674 36.0511 50.3284C36.7612 49.941 36.7627 48.9842 36.7405 48.2872C36.7138 47.464 36.7479 46.6451 36.7642 45.8204C36.7864 44.8035 36.7983 43.7866 36.8101 42.7696C36.8339 40.7475 36.8546 38.7239 36.9495 36.7033C37.0429 34.6914 37.203 32.684 37.4298 30.6824C37.4861 30.1908 37.5454 29.7007 37.6092 29.2105C37.6388 28.9772 37.415 28.7366 37.2015 28.6793C37.0844 28.6485 36.9673 28.6177 36.8502 28.5854C36.57 28.5106 36.2335 28.6793 36.1668 28.9699C36.1 29.2604 36.2542 29.5671 36.5552 29.6464C36.6723 29.6772 36.7894 29.708 36.9065 29.7403L36.4988 29.2091C35.9933 33.108 35.7784 37.0232 35.7235 40.953C35.6953 42.9384 35.6864 44.9238 35.6286 46.9093C35.6183 47.2717 35.6049 47.6298 35.6197 47.9922C35.6346 48.3341 35.6464 48.6761 35.6168 49.018C35.6138 49.0503 35.593 49.1544 35.6153 49.037C35.6094 49.0664 35.6049 49.0972 35.599 49.1266C35.5842 49.197 35.5619 49.2645 35.5397 49.3335C35.5812 49.2014 35.516 49.3687 35.4878 49.4083L35.5278 49.354C35.4922 49.3863 35.4922 49.3878 35.5278 49.3599C35.5649 49.3335 35.5649 49.3335 35.5234 49.3599C35.5011 49.3731 35.4789 49.3848 35.4567 49.3966C35.5456 49.3379 35.5219 49.3746 35.4804 49.3834C35.4404 49.3922 35.4003 49.4039 35.3603 49.4142C35.3321 49.4215 35.2536 49.4259 35.3796 49.4142C35.3425 49.4171 35.3055 49.4215 35.2684 49.423C35.1038 49.4333 34.9393 49.423 34.7747 49.4098C34.4723 49.3848 34.1729 49.3379 33.8705 49.3276C33.3664 49.3115 32.8624 49.2953 32.3584 49.2821C31.3503 49.2542 30.3422 49.2351 29.3342 49.2322C27.3418 49.2234 25.3479 49.2718 23.3614 49.4288C23.1494 49.445 22.9389 49.4714 22.7299 49.5037C22.6513 49.5154 22.5713 49.5286 22.4927 49.5404C22.5135 49.5374 22.6069 49.5301 22.5016 49.5374C22.4497 49.5418 22.3978 49.5462 22.346 49.5477C22.3104 49.5477 22.2748 49.5477 22.2392 49.5477C22.1384 49.5477 22.2466 49.5477 22.2659 49.5521C22.2288 49.5404 22.1251 49.4964 22.2511 49.5609C22.2288 49.5492 22.2066 49.536 22.1829 49.5242C22.2896 49.5785 22.2096 49.5448 22.1755 49.5052C22.2185 49.555 22.1873 49.555 22.1858 49.5052L22.1636 49.4611C22.1829 49.5037 22.1844 49.5052 22.1695 49.4655C22.1458 49.3966 22.1221 49.3276 22.0999 49.2572C21.8345 48.4222 21.6863 47.5564 21.5543 46.6921C21.4224 45.8278 21.289 44.9429 21.12 44.0727C20.9391 43.1438 20.7568 42.1885 20.6397 41.267C20.5151 40.2897 20.4662 39.3109 20.4692 38.3248C20.4721 37.3387 20.4959 36.3584 20.4128 35.3782C20.2453 33.403 19.7754 31.4587 19.3766 29.5187L19.0816 28.0821C19.0223 27.7901 18.6725 27.6228 18.3982 27.6976C18.0913 27.7813 17.9505 28.0821 18.0098 28.3741H18.0128Z" fill="#2E3553"/>
<path d="M25.7378 29.8562C25.969 31.1021 26.0357 32.3802 26.0995 33.6554C26.1632 34.9306 26.2299 36.2997 26.2967 37.6204C26.4241 40.184 26.565 42.7476 26.7058 45.3098C26.7859 46.7567 26.863 48.205 26.9341 49.6519C26.9489 49.9395 27.1802 50.2154 27.49 50.2022C27.7791 50.189 28.0608 49.9601 28.0459 49.6519C27.9184 47.0883 27.7732 44.5262 27.6338 41.964C27.49 39.327 27.3625 36.6901 27.2321 34.0531C27.158 32.5504 27.0868 31.0448 26.8111 29.5627C26.7562 29.2707 26.3989 29.1049 26.1277 29.1783C25.8178 29.2634 25.6844 29.5613 25.7393 29.8547L25.7378 29.8562Z" fill="#2E3553"/>
<path d="M43.3773 28.7116C42.5472 31.9297 41.9572 35.2065 41.6058 38.5097C41.508 39.4298 41.4294 40.3513 41.3701 41.2729C41.3508 41.5605 41.6384 41.8363 41.926 41.8231C42.2433 41.8085 42.4612 41.581 42.482 41.2729C42.691 38.046 43.1313 34.869 43.8102 31.7037C44.0044 30.7998 44.2179 29.8988 44.4492 29.0036C44.5203 28.7248 44.3572 28.3932 44.0608 28.3271C43.7643 28.2611 43.4544 28.4137 43.3773 28.7116Z" fill="#2E3553"/>
<path d="M45.9212 44.9884C45.435 44.1197 44.4343 43.5342 43.4233 43.5797C42.4123 43.6251 41.4457 44.24 41.0321 45.1571H41.9927C41.674 44.7404 41.2397 44.4293 40.7119 44.3325C40.1842 44.2356 39.6238 44.2987 39.1702 44.5951C38.2733 45.1792 37.9857 46.4059 38.4942 47.3319L38.6943 46.5791C37.704 47.2688 37.3156 48.5381 37.8167 49.6402C38.2985 50.6996 39.5526 51.2734 40.6793 50.9697C41.3079 50.7994 41.8564 50.3886 42.1884 49.8353L41.173 49.7033C41.3701 50.2946 41.8994 50.7114 42.519 50.8097C43.238 50.9242 43.914 50.6556 44.5411 50.3343C45.1281 50.0334 45.6989 49.5903 45.8649 48.9241C46.0309 48.2578 45.7033 47.5652 45.0807 47.2424C44.3483 46.8608 43.5493 47.0311 42.7992 47.2629C42.5739 47.3319 42.3797 47.5476 42.3915 47.7941C42.4019 48.023 42.5546 48.2784 42.7992 48.3253C43.9377 48.5425 45.1385 48.048 45.7493 47.0589C46.0472 46.5762 46.2118 45.9848 46.1154 45.4213C46.0235 44.8886 45.647 44.4542 45.2319 44.1299C44.9962 43.9465 44.676 43.9025 44.4462 44.1299C44.2535 44.3207 44.209 44.7228 44.4462 44.9077C44.5366 44.9781 44.6256 45.0515 44.7086 45.1307C44.7471 45.1674 44.7827 45.2041 44.8183 45.2437C44.8272 45.2525 44.925 45.3787 44.8568 45.2833C44.9117 45.3582 44.9517 45.4374 44.9977 45.5167C44.9369 45.414 44.9947 45.5123 45.0051 45.546C45.0184 45.5871 45.0258 45.6282 45.0362 45.6708C45.0629 45.7808 45.0421 45.5724 45.0362 45.6957C45.0347 45.7397 45.0347 45.7852 45.0362 45.8292C45.0377 45.9452 45.0614 45.7412 45.0332 45.8689C45.0243 45.9085 45.0169 45.9496 45.0066 45.9892C44.9487 46.2166 44.9132 46.3017 44.7916 46.5013C44.7694 46.538 44.7442 46.5718 44.7219 46.607C44.6537 46.7097 44.7605 46.5732 44.6834 46.6554C44.6137 46.7302 44.5455 46.8051 44.4669 46.8726C44.461 46.8785 44.332 46.9768 44.4195 46.9137C44.378 46.943 44.335 46.9724 44.292 47.0002C44.2046 47.0545 44.1141 47.103 44.0207 47.147C43.8799 47.2145 44.1126 47.1235 43.9629 47.169C43.914 47.1837 43.8651 47.2013 43.8162 47.216C43.7672 47.2306 43.7168 47.2424 43.6664 47.2526C43.6412 47.2585 43.493 47.282 43.6116 47.2673C43.5182 47.2791 43.4248 47.2835 43.3299 47.282C43.278 47.282 43.2276 47.2776 43.1757 47.2747C43.1342 47.2703 43.1416 47.2717 43.1965 47.2791C43.1624 47.2747 43.1283 47.2673 43.0957 47.2615V48.3224C43.3877 48.2314 43.7213 48.1258 43.997 48.1096C44.0771 48.1052 44.1571 48.1082 44.2372 48.1096C44.3217 48.117 44.3291 48.1184 44.2609 48.1096C44.295 48.1155 44.3291 48.1228 44.3617 48.1316C44.4121 48.1448 44.4625 48.1595 44.5114 48.1801C44.4106 48.139 44.593 48.23 44.6107 48.2402C44.7041 48.2887 44.5826 48.1977 44.6611 48.2769C44.6819 48.2989 44.7916 48.4427 44.7382 48.3532C44.7456 48.3664 44.8124 48.5014 44.7723 48.3987C44.7842 48.431 44.7931 48.4618 44.802 48.4956C44.799 48.4442 44.8005 48.4515 44.8035 48.5205C44.8035 48.5381 44.7812 48.6878 44.8005 48.6012C44.7946 48.6276 44.7293 48.7993 44.7575 48.7421C44.7308 48.7949 44.7012 48.8448 44.6671 48.8932C44.6967 48.861 44.6893 48.8698 44.6448 48.9196C44.6167 48.9505 44.5885 48.9798 44.5589 49.0077C44.5292 49.0356 44.4981 49.0635 44.4669 49.0899C44.4907 49.0737 44.4877 49.0767 44.458 49.0972C44.4002 49.1398 44.3395 49.1794 44.2772 49.2161C44.1541 49.2909 44.0252 49.3584 43.8962 49.423C43.6338 49.5536 43.4189 49.6504 43.1194 49.715C43.0201 49.7355 43.0186 49.737 42.9489 49.7385C42.8881 49.7385 42.8288 49.7385 42.7681 49.7385C42.7014 49.7326 42.6999 49.7326 42.7621 49.7385C42.728 49.7326 42.6939 49.7253 42.6613 49.7165C42.6109 49.7033 42.562 49.6886 42.5131 49.6695C42.6154 49.7091 42.4345 49.6211 42.4167 49.6123C42.3159 49.5595 42.4419 49.6519 42.3678 49.5771C42.3426 49.555 42.3189 49.5316 42.2966 49.5066C42.3307 49.555 42.3293 49.5536 42.2922 49.5008C42.2744 49.4729 42.2581 49.445 42.2418 49.4156C42.264 49.4714 42.264 49.4699 42.2418 49.4083C42.0936 48.9651 41.4783 48.8566 41.2263 49.2762C40.7846 50.0129 39.7646 50.167 39.1509 49.6049C39.1049 49.5639 39.062 49.5198 39.0205 49.4743C38.9967 49.4479 38.9745 49.4215 38.9523 49.3936C38.9849 49.4362 38.9819 49.4303 38.9448 49.379C38.9167 49.3349 38.887 49.2909 38.8603 49.2454C38.85 49.2278 38.764 49.0444 38.8025 49.1398C38.7566 49.0253 38.724 48.9064 38.7032 48.7861C38.721 48.8976 38.7032 48.748 38.7002 48.723C38.6973 48.6526 38.7017 48.5836 38.7032 48.5132C38.7106 48.4471 38.7091 48.4427 38.7002 48.5029C38.7047 48.4765 38.7091 48.4515 38.7136 48.4251C38.7254 48.365 38.7403 48.3048 38.7566 48.2461C38.7625 48.227 38.8322 48.0348 38.7907 48.1302C38.8114 48.0817 38.8351 48.0348 38.8603 47.9878C38.8944 47.9262 38.933 47.8675 38.97 47.8088C39.0338 47.7076 38.9374 47.8338 39.0116 47.753C39.059 47.7017 39.1064 47.6503 39.1583 47.6019C39.185 47.5784 39.2102 47.5549 39.2384 47.5329C39.1954 47.5652 39.1998 47.5623 39.2532 47.5241C39.5052 47.3495 39.606 47.0516 39.4533 46.7713C39.4533 46.7713 39.3896 46.6437 39.4177 46.7082C39.4459 46.7728 39.3985 46.6525 39.3955 46.6393C39.3837 46.6011 39.3748 46.563 39.3644 46.5233C39.351 46.472 39.3496 46.425 39.357 46.5043C39.3496 46.425 39.3466 46.3443 39.351 46.2651C39.351 46.2401 39.3792 46.1007 39.351 46.221C39.3584 46.1902 39.3629 46.1579 39.3703 46.1271C39.3881 46.0493 39.4118 45.9716 39.4415 45.8982C39.397 46.0097 39.4593 45.8689 39.4667 45.8556C39.4815 45.8278 39.4978 45.7999 39.5156 45.7735C39.523 45.7617 39.6149 45.6385 39.5408 45.7295C39.5615 45.7045 39.5823 45.681 39.6045 45.6575C39.6371 45.6223 39.6727 45.5915 39.7083 45.5578C39.7809 45.4888 39.6787 45.5724 39.7305 45.5416C39.7661 45.5211 39.8002 45.4976 39.8358 45.4785C39.8477 45.4726 39.9692 45.4184 39.904 45.4448C39.8388 45.4712 39.9781 45.4228 39.9766 45.4228C40.0167 45.411 40.0567 45.4022 40.0967 45.3934C40.1278 45.3861 40.2272 45.3875 40.1204 45.3875C40.1619 45.3875 40.2034 45.3817 40.2435 45.3817C40.2835 45.3817 40.3265 45.3831 40.368 45.3846C40.4747 45.3875 40.3294 45.3714 40.3932 45.3846C40.4747 45.4022 40.5548 45.4184 40.6333 45.4448C40.6749 45.458 40.7342 45.4844 40.6615 45.4521C40.6986 45.4697 40.7356 45.4873 40.7712 45.5079C40.8068 45.5284 40.8409 45.5504 40.8765 45.571C40.9624 45.6209 40.8572 45.549 40.9017 45.5886C40.9328 45.6165 40.9624 45.6429 40.9921 45.6722C41.0084 45.6898 41.1003 45.7984 41.0336 45.7104C41.1552 45.8703 41.299 45.9833 41.5139 45.9833C41.6933 45.9833 41.9171 45.8821 41.9942 45.7104C42.0313 45.6282 42.0713 45.549 42.1173 45.4712C42.1454 45.4257 42.1751 45.3802 42.2062 45.3362C42.224 45.3112 42.2551 45.276 42.2181 45.32C42.2818 45.2437 42.35 45.1733 42.4227 45.1058C42.4553 45.075 42.4894 45.0456 42.5249 45.0177C42.4671 45.0647 42.5398 45.0075 42.565 44.9913C42.6391 44.94 42.7177 44.8945 42.7977 44.8519C42.8377 44.8314 42.8778 44.8108 42.9193 44.7932C42.8377 44.8299 42.946 44.7844 42.9623 44.7786C43.0557 44.7463 43.152 44.7184 43.2499 44.6993C43.2854 44.692 43.321 44.6846 43.3566 44.6802C43.2454 44.6949 43.4189 44.6802 43.4248 44.6802C43.7539 44.6656 44.0296 44.7375 44.2905 44.8798C44.593 45.0456 44.796 45.2452 44.9636 45.5431C45.1088 45.8028 45.4691 45.8879 45.7241 45.7412C45.979 45.5944 46.0695 45.2496 45.9242 44.9884H45.9212Z" fill="#2E3553"/>
</svg>
