<svg width="19" height="20" viewBox="0 0 19 20" fill="none" xmlns="http://www.w3.org/2000/svg">
<path d="M1.08105 15.2258L9.50041 12.0322L18.2101 15.2258L9.50041 19L1.08105 15.2258Z" fill="#ECECEC"/>
<path d="M0.5 4.19355L9.5 1L18.5 4.19355V15.2258L9.5 12.0323L0.5 15.2258V4.19355Z" fill="white"/>
<path d="M6.88745 5.64526L3.48339 6.76663L3.40358 14.0646L6.88745 12.9033V5.64526Z" fill="#48BFAA"/>
<path d="M16.1775 7.09676L12.1928 5.60522L12.113 9.99999L16.1775 11.4516V7.09676Z" fill="#48BFAA"/>
<path d="M9.5 1L0.5 4.19355V15.2258L9.5 19L18.5 15.2258V4.19355L9.5 1Z" stroke="#2E3553"/>
<path d="M9.49972 1V12.0323M9.49972 12.0323L18.2094 15.2258M9.49972 12.0323L0.790039 15.2258" stroke="#2E3553"/>
<path d="M6.88745 13.1536V5.64526L3.40358 6.80655V14.3549" stroke="#2E3553"/>
<path d="M12.113 9.9237V5.64526L16.1775 7.17328V11.4517L12.113 9.9237Z" stroke="#2E3553"/>
</svg>
