<svg width="46" height="42" viewBox="0 0 46 42" fill="none" xmlns="http://www.w3.org/2000/svg">
<path d="M11.9589 7.57534V8.07534C12.1367 8.07534 12.3012 7.98089 12.3908 7.82728L11.9589 7.57534ZM15.7945 1V0.5C15.6167 0.5 15.4522 0.594456 15.3626 0.748065L15.7945 1ZM30.0411 1L30.473 0.748065C30.3834 0.594456 30.2189 0.5 30.0411 0.5V1ZM33.8767 7.57534L33.4448 7.82728C33.5344 7.98089 33.6989 8.07534 33.8767 8.07534V7.57534ZM1.5 35.5205V13.0548H0.5V35.5205H1.5ZM6.47945 8.07534H11.9589V7.07534H6.47945V8.07534ZM12.3908 7.82728L16.2264 1.25194L15.3626 0.748065L11.527 7.32341L12.3908 7.82728ZM15.7945 1.5H30.0411V0.5H15.7945V1.5ZM29.6092 1.25194L33.4448 7.82728L34.3086 7.32341L30.473 0.748065L29.6092 1.25194ZM33.8767 8.07534H39.3562V7.07534H33.8767V8.07534ZM44.3356 13.0548V35.5206H45.3356V13.0548H44.3356ZM44.3356 35.5206C44.3356 38.2706 42.1062 40.5 39.3562 40.5V41.5C42.6585 41.5 45.3356 38.8229 45.3356 35.5206H44.3356ZM39.3562 8.07534C42.1062 8.07534 44.3356 10.3047 44.3356 13.0548H45.3356C45.3356 9.75243 42.6585 7.07534 39.3562 7.07534V8.07534ZM1.5 13.0548C1.5 10.3047 3.72938 8.07534 6.47945 8.07534V7.07534C3.17709 7.07534 0.5 9.75243 0.5 13.0548H1.5ZM6.47945 40.5C3.72938 40.5 1.5 38.2706 1.5 35.5205H0.5C0.5 38.8229 3.17709 41.5 6.47945 41.5V40.5ZM30.637 22.9178C30.637 27.181 27.181 30.637 22.9178 30.637V31.637C27.7333 31.637 31.637 27.7333 31.637 22.9178H30.637ZM22.9178 30.637C18.6546 30.637 15.1986 27.181 15.1986 22.9178H14.1986C14.1986 27.7333 18.1023 31.637 22.9178 31.637V30.637ZM15.1986 22.9178C15.1986 18.6546 18.6546 15.1986 22.9178 15.1986V14.1986C18.1023 14.1986 14.1986 18.1023 14.1986 22.9178H15.1986ZM22.9178 15.1986C27.181 15.1986 30.637 18.6546 30.637 22.9178H31.637C31.637 18.1023 27.7333 14.1986 22.9178 14.1986V15.1986ZM39.3562 40.5H6.47945V41.5H39.3562V40.5Z" fill="#CFD3EE"/>
</svg>
