<svg width="65" height="65" viewBox="0 0 65 65" fill="none" xmlns="http://www.w3.org/2000/svg">
<circle cx="32.5" cy="32.5" r="32.5" fill="#E7FEFF"/>
<path fill-rule="evenodd" clip-rule="evenodd" d="M23.0174 18.7707C22.9238 18.6923 22.805 18.6447 22.6805 18.6502C22.3968 18.6628 22.1541 18.8815 22.1485 19.1759C22.1378 19.7402 22.1275 20.304 22.1172 20.8679C22.107 21.4318 22.0967 21.9957 22.086 22.5599C22.0803 22.8529 22.3343 23.0744 22.6181 23.0856C23.7816 23.1333 24.945 23.1809 26.107 23.23C26.4078 23.2426 26.6221 22.9791 26.6391 22.7043L26.8903 18.8171C26.9016 18.6362 26.781 18.4526 26.6263 18.3628C26.4504 18.2619 26.2659 18.2816 26.0886 18.3628C25.2203 18.7652 24.149 18.9166 23.2211 18.7736C23.1541 18.7633 23.0848 18.7622 23.0174 18.7707ZM25.7759 19.5951C24.9438 19.8462 24.0756 19.9222 23.2005 19.8233L23.1596 22.057C23.9761 22.0912 24.7931 22.1248 25.6102 22.1583L25.7759 19.5951Z" fill="#2E3553"/>
<path fill-rule="evenodd" clip-rule="evenodd" d="M22.6124 25.6888C22.7451 25.6828 22.8756 25.7397 22.9742 25.8307C23.3263 25.8398 23.6784 25.8488 24.0307 25.8578L24.8875 25.8795L24.8926 25.8796L26.92 25.9313C27.2563 25.9397 27.5373 26.2622 27.4337 26.5972C27.069 27.7803 26.8704 28.9565 26.8335 30.1831C26.825 30.4564 26.5951 30.7228 26.3014 30.7088C25.0089 30.6457 23.7163 30.5812 22.4237 30.5167C22.1485 30.5027 21.8774 30.2854 21.8916 29.991C21.9202 29.4144 21.9491 28.8378 21.978 28.2612L22.0371 27.0822C22.0515 26.7929 22.066 26.5037 22.0803 26.2145C22.0945 25.9201 22.313 25.7014 22.6124 25.6888ZM26.2241 26.9662C25.9987 27.8392 25.8559 28.7333 25.7958 29.6322C24.8574 29.5854 23.919 29.5387 22.9805 29.4926L23.111 26.887L26.2241 26.9662Z" fill="#2E3553"/>
<path fill-rule="evenodd" clip-rule="evenodd" d="M22.6803 33.3243C22.426 33.371 22.2438 33.5749 22.2336 33.8405L22.1569 35.8381C22.1534 35.9301 22.1463 36.0273 22.139 36.1275C22.0973 36.7032 22.0486 37.3736 22.6167 37.6829C22.8863 37.8301 23.1998 37.8244 23.4978 37.816C23.8482 37.8062 24.2001 37.7964 24.5506 37.7852L26.5866 37.7263C26.8846 37.7179 27.1045 37.4922 27.1187 37.2006L27.306 33.2979C27.3188 33.0344 27.0506 32.7442 26.7739 32.7722L23.0707 33.1507C22.9252 33.1655 22.7816 33.226 22.6803 33.3243ZM26.2124 33.8836L23.2845 34.1829C23.2774 34.3673 23.2702 34.5518 23.2629 34.7362L23.2433 35.2377C23.2382 35.3691 23.2332 35.5005 23.2282 35.632L23.1941 36.5277C23.1934 36.5476 23.1925 36.5674 23.1916 36.5872L23.19 36.6249L23.1891 36.6473C23.1879 36.6798 23.187 36.7123 23.187 36.745C23.1866 36.753 23.1864 36.761 23.1864 36.7689L23.2098 36.7703C23.2584 36.7725 23.306 36.7712 23.3543 36.7698L23.3914 36.7689L23.8482 36.7563C24.1519 36.7464 24.4569 36.738 24.7606 36.7296C25.0655 36.7213 25.37 36.7125 25.6745 36.7038L25.6864 36.7033L26.0777 36.6921L26.2124 33.8836Z" fill="#2E3553"/>
<path fill-rule="evenodd" clip-rule="evenodd" d="M22.6479 40.1375C22.8504 40.1286 23.0312 40.2562 23.1206 40.4283L25.9254 40.1823C26.3724 40.1431 26.8605 40.1767 27.113 40.6085C27.2957 40.9234 27.2793 41.2846 27.2634 41.6344L27.2632 41.6404C27.2612 41.6826 27.2593 41.7246 27.2578 41.7664C27.2407 42.2066 27.2251 42.6664 27.2095 43.0883C27.2053 43.2003 27.203 43.3124 27.2006 43.4246C27.1942 43.7353 27.1876 44.0471 27.1428 44.3612C27.0818 44.7887 26.7909 45.1546 26.3497 45.2415C26.0373 45.3037 25.7025 45.278 25.3777 45.253C25.3351 45.2497 25.2927 45.2465 25.2505 45.2434C25.1864 45.2388 25.1227 45.2347 25.0599 45.2317C24.6578 45.2132 24.2561 45.1951 23.8543 45.1769L22.4095 45.1111C22.1513 45.1 21.8405 44.8771 21.8774 44.5855C22.042 43.2846 22.1215 41.9739 22.1158 40.6631C22.1144 40.3688 22.3599 40.1501 22.6479 40.1375ZM23 44.0866C23.0943 43.2204 23.1515 42.3508 23.1718 41.4795C23.4692 41.4535 23.7666 41.4274 24.0639 41.4012C24.4502 41.3672 24.8365 41.3332 25.2231 41.2996L25.785 41.2505L26.0659 41.2253C26.0999 41.2225 26.1354 41.2197 26.1695 41.2183L26.1709 41.2182C26.1832 41.2175 26.1957 41.2169 26.2082 41.2165C26.2139 41.3059 26.2086 41.3977 26.2033 41.4877C26.2013 41.5235 26.1992 41.559 26.1978 41.594C26.1695 42.3706 26.1411 43.1472 26.1141 43.9252C26.1113 44.0009 26.107 44.0752 26.1042 44.1509L26.1039 44.1583C26.103 44.1628 26.1021 44.1673 26.1011 44.1718C26.0995 44.1789 26.0978 44.1861 26.0961 44.1931L26.0958 44.1943L26.0926 44.208C26.0915 44.2126 26.0905 44.2172 26.0896 44.2217C25.8428 44.2321 25.5921 44.2152 25.3435 44.1984L25.3398 44.1982C25.2341 44.191 25.1288 44.1839 25.0244 44.1789C24.8236 44.1699 24.6226 44.1608 24.4216 44.1516L23 44.0866ZM26.0811 44.2669C26.0704 44.2651 26.0635 44.2555 26.0856 44.2428L26.0811 44.2669Z" fill="#2E3553"/>
<path d="M30.8765 20.3199C30.1863 20.3274 29.496 20.3348 28.8057 20.3422C28.5077 20.345 28.2864 20.1025 28.2736 19.8165C28.2609 19.5306 28.5276 19.2937 28.8057 19.2909C29.3009 19.2853 29.7957 19.28 30.2906 19.2747C30.7854 19.2695 31.2802 19.2642 31.7754 19.2586L42.3813 19.1437C42.6793 19.1409 42.9006 19.3834 42.9134 19.6694C42.9261 19.9553 42.6594 20.1922 42.3813 20.195C41.8799 20.2007 41.379 20.206 40.878 20.2114L39.4116 20.2273C37.6438 20.2462 35.8762 20.2655 34.1087 20.2847L30.8765 20.3199Z" fill="#2E3553"/>
<path d="M28.5475 22.3623C31.6008 22.4941 34.6585 22.5123 37.7119 22.4141C38.5816 22.3861 39.45 22.3497 40.3183 22.3034C40.646 22.2866 40.9454 21.9796 40.8319 21.6375C40.8255 21.6193 40.8195 21.6011 40.8135 21.5829C40.8075 21.5646 40.8014 21.5464 40.795 21.5282C40.7056 21.259 40.4275 21.0838 40.1409 21.1609C40.1167 21.1676 40.093 21.1761 40.0701 21.1863C40.0388 21.2003 40.0089 21.2175 39.9809 21.2373C39.9734 21.2426 39.9659 21.2482 39.9586 21.2539C39.9547 21.257 39.9508 21.2601 39.947 21.2633L39.9389 21.2702C37.0136 21.4157 34.0844 21.4581 31.1553 21.3936C30.2856 21.374 29.4172 21.3459 28.5475 21.3081C28.2694 21.2955 28.0027 21.559 28.0154 21.8338C28.0282 22.1282 28.2495 22.3469 28.5475 22.3595V22.3623Z" fill="#2E3553"/>
<path d="M39.5847 27.3906L28.8071 27.7145C28.5092 27.7229 28.2878 27.4789 28.2751 27.1888C28.2623 26.8986 28.529 26.6715 28.8071 26.6631C29.823 26.6336 30.8404 26.6028 31.8562 26.572L42.6339 26.2481C42.9318 26.2397 43.1531 26.4837 43.1659 26.7738C43.1787 27.064 42.9119 27.2911 42.6339 27.2995C41.618 27.329 40.6006 27.3598 39.5847 27.3906Z" fill="#2E3553"/>
<path d="M28.722 29.6027C31.7456 29.5691 34.7706 29.534 37.7941 29.5004L40.3708 29.471C40.6489 29.4682 40.9156 29.2312 40.9029 28.9453C40.8901 28.6593 40.6687 28.4168 40.3708 28.4196C38.8588 28.4364 37.3464 28.4536 35.8341 28.4708L35.4521 28.4751C34.0675 28.4908 32.6829 28.5065 31.2986 28.5219L28.722 28.5514C28.4439 28.5542 28.1772 28.7911 28.1899 29.077C28.2027 29.363 28.424 29.6055 28.722 29.6027Z" fill="#2E3553"/>
<path d="M36.3866 34.4839C33.7263 34.7068 31.0574 34.8231 28.3872 34.8357C28.0892 34.8371 27.8678 34.5946 27.8551 34.31C27.8423 34.0255 28.1091 33.7844 28.3872 33.7844C31.0574 33.7718 33.7263 33.654 36.3866 33.4325C36.6832 33.4073 36.9074 33.6933 36.9187 33.9582C36.9329 34.2582 36.6633 34.4615 36.3866 34.4839Z" fill="#2E3553"/>
<path d="M28.5971 37.0759C30.5807 36.9413 32.5628 36.8067 34.5464 36.6707C34.8231 36.6525 35.0927 36.4423 35.0785 36.1451C35.0657 35.8759 34.8444 35.5998 34.5464 35.6194C32.5628 35.7539 30.5807 35.8885 28.5971 36.0245C28.3205 36.0427 28.0509 36.253 28.0651 36.5502C28.0778 36.8193 28.2992 37.0955 28.5971 37.0759Z" fill="#2E3553"/>
<path d="M28.6794 44.2561C29.4257 44.2238 30.1721 44.1915 30.9198 44.1593C31.293 44.1439 31.6661 44.1271 32.0393 44.1117C32.1407 44.1071 32.2417 44.103 32.3428 44.0988L32.344 44.0987L32.3453 44.0987L32.482 44.0929L32.5997 44.0878L32.6356 44.0865C32.765 44.0819 32.8914 44.0775 33.0083 44.0107C33.12 43.9465 33.1838 43.846 33.2503 43.7414L33.2505 43.7411L33.251 43.7402C33.4028 43.499 33.3021 43.1612 33.0594 43.021C32.8762 42.9154 32.6601 42.9339 32.496 43.0424C31.2364 43.0948 29.9779 43.1496 28.7181 43.2044L28.6794 43.2061C28.4013 43.2187 28.1346 43.4388 28.1473 43.7318C28.1601 44.0065 28.3815 44.27 28.6794 44.2575V44.2561Z" fill="#2E3553"/>
<path d="M41.2088 41.9755C41.1345 43.427 41.1669 44.8835 41.3101 46.3321C41.337 46.6055 41.5357 46.8719 41.8421 46.8578C42.1273 46.8452 42.377 46.6265 42.3742 46.3321C42.3742 46.2806 42.3735 46.229 42.3729 46.1775L42.3728 46.1703C42.3721 46.1163 42.3714 46.0623 42.3714 46.0083C42.3707 45.9392 42.355 45.8709 42.3273 45.8074C42.2254 44.5396 42.2061 43.2665 42.2706 41.999C43.7051 42.0306 45.1395 42.0623 46.574 42.0944C46.8521 42.1 47.1189 41.8477 47.1061 41.5687C47.0933 41.2898 46.872 41.0501 46.574 41.043C45.1638 41.0115 43.7536 40.9804 42.3434 40.9492C42.4314 39.947 42.5725 38.9503 42.7672 37.9646C42.8197 37.6955 42.6906 37.3843 42.3955 37.3184C42.1316 37.2595 41.7982 37.3969 41.7414 37.6857H41.74C41.5289 38.7575 41.3753 39.8394 41.2812 40.9257C40.2234 40.9023 39.1656 40.8789 38.1077 40.8552C37.8296 40.8496 37.5629 41.1019 37.5757 41.3809C37.5884 41.6599 37.8098 41.8996 38.1077 41.9066C39.1414 41.9297 40.1751 41.9526 41.2088 41.9755Z" fill="#2E3553"/>
<path fill-rule="evenodd" clip-rule="evenodd" d="M47.6396 24.6332C47.5558 27.9219 47.4707 31.2106 47.3856 34.4993L47.3828 34.4979C47.3795 34.6345 47.3254 34.7549 47.2402 34.8458C47.5595 35.2452 47.8701 35.6526 48.1803 36.0596L48.1816 36.0612L48.2333 36.1291C48.3181 36.1744 48.3939 36.2413 48.454 36.3231C48.7236 36.689 48.9917 37.0548 49.25 37.4291C50.2602 38.8941 51.042 40.5076 51.0505 42.3131C51.059 43.8789 50.5496 45.47 49.6146 46.7359C48.5419 48.1868 46.9784 49.1176 45.2573 49.6012C43.5363 50.0848 41.6534 50.2068 39.9168 49.8213C38.7106 49.5536 37.6221 49.0085 36.7141 48.2281L34.7351 48.2442C34.2463 48.2484 33.7546 48.2536 33.2624 48.2589L33.2573 48.259C32.0695 48.2718 30.8796 48.2847 29.7251 48.2807C29.2667 48.2791 28.8082 48.274 28.3497 48.2689L28.3366 48.2688C27.1644 48.2556 25.9919 48.2425 24.8201 48.2877C24.72 48.2915 24.6193 48.2956 24.5184 48.2997L24.5096 48.3001L24.497 48.3006C23.2971 48.3501 22.0478 48.4015 20.9154 47.9541C20.2614 47.6947 19.7094 47.3008 19.2838 46.7429C18.8922 46.2312 18.668 45.634 18.536 44.9794C18.4041 44.3247 18.3658 43.6547 18.353 42.9888C18.3426 42.4584 18.3359 41.928 18.3293 41.3976C18.326 41.1346 18.3227 40.8715 18.319 40.6085L18.2842 38.1441V38.1406L18.2494 35.6796C18.2265 34.068 18.2039 32.4568 18.1812 30.8457L18.1758 30.4591C18.1541 28.9128 18.1324 27.3667 18.1104 25.8206C18.1041 25.369 18.0978 24.9174 18.0914 24.4659L18.0618 22.3873C18.0548 21.8888 18.0477 21.3903 18.0409 20.8917C18.04 20.8313 18.0389 20.7706 18.0376 20.7095C18.0355 20.6088 18.033 20.5074 18.0304 20.4054C17.9977 19.1057 17.9628 17.7193 18.8411 16.6723C19.6598 15.6952 21.0389 15.4428 22.2492 15.3643C22.7927 15.3288 23.3378 15.3229 23.8827 15.3169C24.069 15.3149 24.2552 15.3129 24.4413 15.3097C25.2671 15.2942 26.0914 15.2802 26.9172 15.2662L31.859 15.1803C33.5475 15.1509 35.2359 15.1215 36.9244 15.0924C37.4405 15.0838 37.9568 15.0721 38.4732 15.0605C39.5551 15.036 40.6372 15.0115 41.7187 15.0153C43.1418 15.0209 44.6429 15.1891 45.7865 16.0737C46.9301 16.9582 47.4537 18.367 47.6311 19.7479C47.7346 20.5469 47.7233 21.3515 47.7034 22.1548C47.6836 22.9805 47.6608 23.8076 47.6396 24.6332ZM35.7183 47.1852C32.9539 47.2085 30.1893 47.2296 27.4237 47.2069C26.6363 47.2013 25.8488 47.2013 25.0613 47.2265C24.8684 47.2326 24.6754 47.2411 24.4823 47.2495H24.4816C24.0079 47.2702 23.534 47.2909 23.0594 47.277C22.9047 47.2728 22.7515 47.2644 22.5982 47.2517C22.5259 47.2461 22.4549 47.2391 22.3826 47.2307L22.2992 47.2208C22.3147 47.2226 22.3033 47.2208 22.2837 47.2181L22.2514 47.2135C22.2307 47.2106 22.2108 47.2078 22.2052 47.2069C21.9115 47.1606 21.622 47.0919 21.3411 46.9938C21.3249 46.9882 21.3091 46.9824 21.2933 46.9765L21.2645 46.9658L21.2556 46.9626L21.2446 46.9588C21.2399 46.9569 21.2279 46.9519 21.2169 46.9473L21.2152 46.9466L21.1972 46.9392C21.1953 46.9384 21.1946 46.9382 21.1958 46.9387C21.1445 46.916 21.0934 46.8916 21.0432 46.8662C20.9055 46.7975 20.7778 46.7148 20.6487 46.6321L20.6314 46.621C20.6197 46.6118 20.608 46.6024 20.5962 46.593L20.5927 46.5901L20.5689 46.5709L20.5522 46.5578C20.4983 46.513 20.4473 46.4667 20.3976 46.4191C20.3408 46.3644 20.2855 46.3069 20.2344 46.2466L20.1663 46.1667C20.1337 46.1261 20.189 46.2018 20.1393 46.1289C20.0571 46.0083 19.9776 45.8864 19.9095 45.756C19.8942 45.7278 19.8796 45.6993 19.8654 45.6705C19.8613 45.6621 19.8572 45.6538 19.8532 45.6454C19.8475 45.6333 19.8418 45.6213 19.8361 45.6091C19.8302 45.5965 19.8244 45.5837 19.8187 45.5709L19.8131 45.5593L19.8106 45.5541L19.8017 45.5303C19.786 45.4896 19.7705 45.449 19.7563 45.4083C19.6541 45.1266 19.5832 44.835 19.5321 44.5406C19.4994 44.3528 19.5023 44.3738 19.481 44.1733C19.464 44.0121 19.4512 43.8495 19.4413 43.6869C19.4228 43.3835 19.4172 43.0801 19.4115 42.7768V42.7743C19.3953 41.6981 19.3804 40.6218 19.3656 39.5455C19.3582 39.0139 19.3509 38.4823 19.3434 37.9506C19.3219 36.44 19.3004 34.9297 19.2791 33.4194C19.2553 31.737 19.2317 30.0547 19.2086 28.3719L19.1064 21.1357C19.1039 20.9487 19.0994 20.7612 19.0949 20.5735C19.0819 20.0263 19.0687 19.4768 19.1036 18.932L19.1076 18.8778C19.1093 18.8555 19.1109 18.8331 19.1127 18.8108C19.1156 18.7747 19.1187 18.7386 19.122 18.7021L19.1323 18.611C19.1336 18.6032 19.1359 18.5881 19.1378 18.5761L19.1405 18.5591C19.1703 18.3923 19.2043 18.2269 19.2554 18.0643C19.2758 18 19.2974 17.9368 19.3221 17.8737C19.317 17.8874 19.3411 17.8303 19.3434 17.8246C19.3519 17.8077 19.36 17.7909 19.3682 17.7741L19.3837 17.7422C19.3868 17.736 19.3899 17.7298 19.393 17.7236C19.4078 17.6961 19.4231 17.6687 19.4389 17.6415C19.4541 17.6155 19.4697 17.5898 19.4857 17.5642C19.4981 17.5443 19.5107 17.5246 19.5236 17.5049C19.5345 17.4884 19.5459 17.4718 19.5577 17.4552C19.566 17.4437 19.5744 17.4323 19.5832 17.4208C19.6172 17.3746 19.542 17.4643 19.6059 17.3942C19.6967 17.2933 19.7903 17.1965 19.8939 17.1096C19.9 17.1051 19.9248 17.0852 19.9389 17.0737C19.9528 17.0636 19.9687 17.0522 19.9733 17.0493C20.0386 17.0045 20.1053 16.9624 20.1734 16.9232C20.2287 16.8909 20.2841 16.8615 20.3422 16.8335C20.35 16.8293 20.3801 16.8156 20.4105 16.8016L20.4123 16.8008C20.4643 16.7769 20.516 16.7532 20.4586 16.7768C20.5873 16.7238 20.7187 16.6805 20.8516 16.6414C21.1292 16.5605 21.4136 16.5037 21.6995 16.4645C21.6432 16.4724 21.8138 16.452 21.8334 16.4494C21.9016 16.4423 21.9711 16.4353 22.0392 16.4297C22.1938 16.4171 22.3471 16.4073 22.5018 16.4003C23.0152 16.3769 23.5293 16.3704 24.0432 16.364C24.2691 16.3612 24.495 16.3583 24.7208 16.354C27.9629 16.2979 31.2036 16.2419 34.4457 16.1844L39.3251 16.1003C39.5659 16.0963 39.8066 16.0913 40.0474 16.0863C40.5643 16.0756 41.0812 16.0648 41.5981 16.0638C41.9273 16.0638 42.2565 16.0695 42.5856 16.0905C42.9531 16.1143 43.1673 16.1367 43.4979 16.2026C43.7888 16.2601 44.1407 16.3597 44.3748 16.4564C44.4627 16.4928 44.6415 16.5811 44.7621 16.6498L44.7876 16.6642L44.8018 16.6724L44.8158 16.6806C44.8253 16.6862 44.8348 16.6918 44.8442 16.6975C44.8812 16.72 44.9177 16.7433 44.9537 16.7676L45.0473 16.8306C45.0661 16.8432 45.0788 16.8516 45.0872 16.8568C45.0943 16.8629 45.1044 16.8712 45.1183 16.8825C45.2318 16.975 45.341 17.0732 45.4432 17.1797C45.4611 17.1984 45.4789 17.2171 45.4964 17.236C45.5288 17.2708 45.5604 17.306 45.5908 17.3423C45.6027 17.3562 45.6143 17.3701 45.6259 17.384L45.6493 17.4118C45.6566 17.4227 45.7124 17.4958 45.7113 17.4937C45.8944 17.7474 46.0476 18.0208 46.1767 18.3054C46.2207 18.4049 46.198 18.3545 46.1881 18.332C46.1963 18.3514 46.204 18.3712 46.2117 18.3913L46.2124 18.3929C46.2179 18.4071 46.2234 18.4214 46.2292 18.4357C46.259 18.5128 46.2874 18.5914 46.3129 18.6713C46.3654 18.8283 46.4109 18.9881 46.4491 19.1507C46.5343 19.5025 46.5811 19.8278 46.6109 20.1838C46.6702 20.9088 46.6512 21.6373 46.6322 22.3639L46.6279 22.5319C46.5456 25.7393 46.4619 28.9466 46.3796 32.154L46.3569 33.0449C46.3501 33.3098 46.3432 33.5747 46.3362 33.8396C46.161 33.6866 45.9724 33.5493 45.7681 33.4353C45.3666 33.211 44.9168 33.0652 44.4642 32.9853C42.702 32.6755 40.8362 33.0008 39.2031 33.6876C37.57 34.3746 36.1511 35.4806 35.1125 36.8936C34.5549 37.6534 34.1392 38.524 33.9462 39.445C33.8362 39.9701 33.7843 40.5326 33.7826 41.1C33.6487 40.9674 33.4485 40.8932 33.268 40.9618C32.3565 41.3089 31.3846 41.2851 30.4033 41.2609C29.8432 41.2472 29.2801 41.2334 28.7234 41.2884C28.4467 41.3164 28.1772 41.5099 28.1913 41.814C28.2027 42.0748 28.4269 42.3692 28.7234 42.3397H28.722C29.2974 42.2824 29.882 42.2951 30.4666 42.3077C31.5121 42.3303 32.5575 42.3529 33.5504 41.9753C33.6503 41.9371 33.7385 41.8785 33.8058 41.8046C33.8189 41.997 33.8374 42.1884 33.8611 42.3776C34.0696 44.0416 34.6045 45.7083 35.6262 47.0653C35.6435 47.0884 35.661 47.1114 35.6787 47.1343C35.6918 47.1513 35.705 47.1683 35.7183 47.1852ZM45.0872 16.8568C45.0639 16.8369 45.0726 16.842 45.0838 16.8501C45.0893 16.8541 45.0953 16.8588 45.0986 16.8617C45.1029 16.8656 45.102 16.8661 45.0872 16.8568ZM37.6728 47.6684C37.6462 47.3959 37.4302 47.1705 37.1429 47.1732L37.1136 47.1735C36.6126 46.68 36.2564 46.1777 35.9085 45.5289C35.558 44.8742 35.3211 44.2294 35.1338 43.4654C34.9266 42.6243 34.8358 41.9248 34.8429 41.0402C34.85 40.1557 34.9947 39.316 35.3395 38.5786C36.0192 37.1193 37.2238 35.9628 38.583 35.168C39.2839 34.7587 39.8997 34.4951 40.6744 34.2722C41.4491 34.0493 42.1543 33.9372 42.9758 33.9232C43.7973 33.9091 44.5848 33.9694 45.2587 34.3535C45.6063 34.5526 45.8816 34.8413 46.154 35.1708C46.3469 35.4041 46.5356 35.65 46.727 35.8997L46.7276 35.9004L46.7293 35.9025C46.7692 35.9547 46.8094 36.007 46.8496 36.0594C46.8881 36.1094 46.9268 36.1595 46.9656 36.2095C47.2622 36.5922 47.5587 36.9735 47.8567 37.3563C47.9022 37.4148 47.9551 37.4662 48.0134 37.5076C48.8498 38.6677 49.6229 39.8764 49.8913 41.2744C49.907 41.3587 49.9216 41.4429 49.9349 41.5272L49.9381 41.5575C49.9438 41.608 49.9495 41.6571 49.9552 41.7075C49.9736 41.8911 49.9835 42.0762 49.9864 42.2612C49.9878 42.4295 49.9835 42.5977 49.9736 42.7645C49.9707 42.8078 49.9673 42.8511 49.9639 42.8942C49.9606 42.9348 49.9572 42.9753 49.9537 43.0154C49.9481 43.0659 49.9424 43.1163 49.9367 43.1654C49.9239 43.2803 49.9495 43.0995 49.9282 43.2257C49.87 43.5761 49.7948 43.9196 49.6898 44.2589C49.6345 44.4355 49.572 44.6107 49.5025 44.7831C49.4939 44.804 49.4852 44.8255 49.4766 44.8468C49.4737 44.8534 49.4655 44.8722 49.4574 44.891C49.4479 44.9132 49.4383 44.9353 49.4373 44.9373C49.3961 45.0299 49.3521 45.121 49.3067 45.2121C48.969 45.8793 48.6214 46.3644 48.1191 46.862C47.9929 46.9868 47.8609 47.1073 47.7247 47.2209L47.7135 47.2301C47.708 47.2346 47.7024 47.2392 47.6969 47.2438L47.6914 47.2484L47.6898 47.2497C47.6688 47.2671 47.6478 47.2845 47.6268 47.3008C47.6253 47.3023 47.5883 47.3308 47.5649 47.3489C47.5323 47.3734 47.4992 47.3974 47.4658 47.4212C47.4448 47.4362 47.4237 47.451 47.4025 47.4657C47.3737 47.4857 47.3449 47.5055 47.3161 47.5251C46.9543 47.7704 46.5712 47.9807 46.1725 48.1601C44.7082 48.819 43.0226 49.0825 41.3952 48.9746C40.9639 48.9466 40.7056 48.9115 40.2842 48.8232C39.8628 48.7349 39.4741 48.6199 39.0853 48.4671L39.0433 48.4506C39.0211 48.4419 39.0077 48.4366 38.9951 48.4314C38.977 48.4238 38.9605 48.4163 38.9218 48.3988L38.9208 48.3983L38.8994 48.3886C38.8129 48.3494 38.7277 48.3101 38.644 48.2667C38.4582 48.1728 38.2766 48.0718 38.0992 47.9611C37.9329 47.8562 37.7998 47.7658 37.6728 47.6684Z" fill="#2E3553"/>
</svg>
