<svg width="21" height="17" viewBox="0 0 21 17" fill="none" xmlns="http://www.w3.org/2000/svg">
<path d="M19 16L4 1M8.8 6.94157C8.42658 7.35326 8.2 7.89403 8.2 8.48631C8.2 9.77609 9.27452 10.8217 10.6 10.8217C11.2111 10.8217 11.7689 10.5994 12.1926 10.2334M19.0388 10.8217C19.865 9.58482 20.2 8.57613 20.2 8.57613C20.2 8.57613 18.0154 1.6 10.6 1.6C10.1837 1.6 9.78387 1.62199 9.4 1.66349M16 13.8494C14.6226 14.7281 12.8493 15.3495 10.6 15.3127C3.27692 15.193 1 8.57613 1 8.57613C1 8.57613 2.05786 5.19808 5.2 3.14332" stroke="#2E3553" stroke-linecap="round"/>
</svg>
