<svg width="19" height="20" viewBox="0 0 19 20" fill="none" xmlns="http://www.w3.org/2000/svg">
<path d="M17.9192 4.77423L9.49984 7.96777L0.790157 4.77423L9.49983 1.00003L17.9192 4.77423Z" fill="#ECECEC"/>
<path d="M18.5 15.8065L9.5 19L0.500002 15.8065L0.500001 4.7742L9.5 7.96774L18.5 4.7742L18.5 15.8065Z" fill="white"/>
<path d="M2.82251 12.9032L6.80721 14.3948L6.88702 10L2.82251 8.5484L2.82251 12.9032Z" fill="#48BFAA"/>
<path d="M9.5 19L18.5 15.8065L18.5 4.7742L9.5 1L0.500001 4.7742L0.500002 15.8065L9.5 19Z" stroke="#2E3553"/>
<path d="M9.50004 19L9.50004 7.96774M9.50004 7.96774L0.790361 4.7742M9.50004 7.96774L18.2097 4.7742" stroke="#2E3553"/>
<path d="M16.1775 9.12915L12.7734 10.2505L12.6936 17.5485L16.1775 16.3872L16.1775 9.12915Z" fill="#48BFAA"/>
<path d="M16.1775 16.6375L16.1775 9.12915L12.6936 10.2904L12.6936 17.8388" stroke="#2E3553"/>
<path d="M9.5 1.29028L9.5 7.67738" stroke="#2E3553"/>
<path d="M6.88702 10.0763L6.88703 14.3547L2.82251 12.8267L2.82251 8.54829L6.88702 10.0763Z" stroke="#2E3553"/>
</svg>
