<svg width="12" height="12" viewBox="0 0 12 12" fill="none" xmlns="http://www.w3.org/2000/svg">
<path d="M4.5743 2.12773L5.02505 1.44758C5.21029 1.16807 5.52329 1 5.85861 1H6.14297C6.47709 1 6.78914 1.16687 6.97466 1.44476L7.41888 2.11016M4.5743 2.12773C4.40913 2.37515 4.13458 2.49639 3.84318 2.47478M4.5743 2.12773C4.40832 2.37456 4.13458 2.4974 3.84318 2.47478M3.84318 2.47478L3.05681 2.42294C2.72653 2.40117 2.40688 2.54423 2.20308 2.80504L1.98771 3.08064C1.7861 3.33864 1.72357 3.679 1.82031 3.99181L2.05864 4.76252M2.05864 4.76252C2.10099 4.90669 2.10641 5.06113 2.0761 5.207M2.05864 4.76252C2.10159 4.90643 2.10681 5.06057 2.0759 5.2085M2.0761 5.207C2.0454 5.35114 1.97957 5.48725 1.88183 5.59746M2.0761 5.207L2.0759 5.2085M1.88183 5.59746L1.34121 6.20799C1.12708 6.4498 1.04294 6.78014 1.11528 7.09492L1.19236 7.43029C1.26683 7.75433 1.49749 8.02016 1.80779 8.13958L2.52304 8.41483C2.65871 8.46996 2.77591 8.55956 2.86461 8.67243M1.88183 5.59746C1.98017 5.48815 2.0454 5.35248 2.0759 5.2085M2.86461 8.67243C2.95272 8.78563 3.01272 8.92225 3.036 9.07018M2.86461 8.67243C2.95352 8.78563 3.01373 8.92189 3.036 9.07018M2.86461 8.67243L2.86321 8.67081C2.85739 8.66341 2.85117 8.65568 2.84515 8.6485M3.036 9.07018L3.16202 9.88294C3.21219 10.2066 3.41764 10.4851 3.71201 10.6286L3.98474 10.7616C4.2859 10.9084 4.64057 10.8946 4.92946 10.7249L5.59059 10.3365M5.59059 10.3365C5.71683 10.2621 5.85771 10.2248 5.9986 10.2246M5.59059 10.3365C5.64056 10.3067 5.69294 10.2828 5.74673 10.265C5.82841 10.2378 5.9135 10.2244 5.9986 10.2246M5.9986 10.2246C6.07185 10.2247 6.1451 10.2349 6.21654 10.255C6.28297 10.2737 6.3476 10.3009 6.40881 10.3365M5.9986 10.2246C6.14008 10.2244 6.28177 10.2617 6.40881 10.3365M6.40881 10.3365L7.11136 10.7359C7.4017 10.9009 7.75526 10.9101 8.0538 10.7604L8.32679 10.6235C8.61971 10.4766 8.82207 10.1955 8.86844 9.87112L8.98025 9.08898M8.98025 9.08898C9.00253 8.94023 9.06173 8.80258 9.14964 8.6884M8.98025 9.08898C9.00173 8.9399 9.06133 8.80245 9.14964 8.6884M9.14964 8.6884C9.23694 8.57538 9.35273 8.48534 9.4876 8.42967M9.14964 8.6884C9.23673 8.57494 9.35213 8.48465 9.4876 8.42967M9.4876 8.42967L10.2193 8.12857C10.5231 8.00356 10.7461 7.73735 10.8159 7.41637L10.8926 7.06368C10.9601 6.75326 10.8762 6.42922 10.6663 6.19067L10.1178 5.56698M10.1178 5.56698C10.0182 5.45638 9.94878 5.32427 9.91507 5.18387M10.1178 5.56698C10.071 5.51533 10.0309 5.45886 9.99815 5.39898C9.96083 5.331 9.93293 5.25863 9.91507 5.18387M9.91507 5.18387C9.88195 5.04447 9.88396 4.89674 9.92591 4.75376L10.1634 3.95447C10.2556 3.64402 10.1918 3.30813 9.99215 3.05314L9.79083 2.79604C9.5846 2.53266 9.26034 2.38984 8.92681 2.4155L8.15602 2.47478M8.15602 2.47478C8.01112 2.48552 7.86863 2.45654 7.74179 2.39419M8.15602 2.47478C8.01092 2.48614 7.86863 2.45693 7.74179 2.39419M7.74179 2.39419C7.61415 2.33105 7.50217 2.23395 7.41888 2.11016M7.74179 2.39419C7.61395 2.33128 7.50177 2.23444 7.41888 2.11016M2.0759 5.2085L2.0763 5.20631M7.61235 6.00531C7.61235 6.93778 6.87621 7.69368 5.96829 7.69368C5.06037 7.69368 4.32424 6.93778 4.32424 6.00531C4.32424 5.07283 5.06037 4.31693 5.96829 4.31693C6.87621 4.31693 7.61235 5.07283 7.61235 6.00531Z" stroke="white"/>
</svg>
