<svg width="65" height="65" viewBox="0 0 65 65" fill="none" xmlns="http://www.w3.org/2000/svg">
<circle cx="32.5" cy="32.5" r="32.5" fill="#FFE7E7"/>
<path fill-rule="evenodd" clip-rule="evenodd" d="M40.3359 33.5493C40.6818 32.8993 41.4169 32.5774 42.1196 32.6503C42.2005 32.6343 42.2851 32.6343 42.3661 32.6513C43.1896 32.8236 44.0978 33.2437 44.3144 34.1503C44.5124 34.9788 44.0963 35.8608 43.3359 36.2301C42.5196 36.6255 41.6057 36.4459 40.9199 35.8753C40.2398 35.3105 39.9098 34.3502 40.3359 33.5493ZM42.574 33.829L42.554 33.8224C42.4713 33.8415 42.3858 33.8393 42.3072 33.8085C42.2568 33.7881 42.2053 33.7743 42.1541 33.7604C42.1178 33.7506 42.0817 33.7408 42.0461 33.7289C41.9916 33.7086 42.1178 33.7274 42.0174 33.7231C42.0045 33.7226 41.9913 33.722 41.9781 33.7214C41.9504 33.7201 41.9222 33.7187 41.8941 33.7187C41.878 33.7187 41.8622 33.7192 41.8464 33.7199C41.8365 33.7204 41.8267 33.7209 41.8168 33.7215C41.8183 33.7219 41.8052 33.7238 41.7892 33.726C41.7727 33.7284 41.7531 33.7311 41.7434 33.7332C41.7116 33.7412 41.6807 33.7502 41.6493 33.7593L41.6477 33.7598L41.6243 33.7665L41.6011 33.7733C41.536 33.8041 41.4737 33.8421 41.4163 33.8853C41.4879 33.8324 41.4496 33.8656 41.4171 33.8937C41.406 33.9034 41.3956 33.9124 41.3905 33.9171C41.3772 33.9305 41.3639 33.9452 41.3506 33.9599C41.3438 33.9674 41.337 33.975 41.3302 33.9823C41.2499 34.0692 41.3617 33.92 41.3087 34.0157C41.2943 34.0403 41.28 34.0678 41.2642 34.0924C41.2589 34.101 41.2546 34.1079 41.2511 34.1131L41.247 34.1257C41.2438 34.1363 41.2405 34.1466 41.2372 34.1569C41.2314 34.1749 41.2257 34.1927 41.2211 34.2112C41.2126 34.2445 41.2068 34.3661 41.2097 34.2416C41.2083 34.2705 41.2054 34.2981 41.2054 34.3299C41.2054 34.3458 41.2061 34.3613 41.207 34.3769C41.207 34.364 41.213 34.4252 41.2183 34.4487C41.2255 34.4806 41.2341 34.5124 41.2441 34.5428C41.2465 34.5487 41.254 34.5678 41.2604 34.5843C41.2736 34.609 41.3004 34.6628 41.2986 34.6602C41.3066 34.6747 41.3149 34.6893 41.3234 34.7037C41.3318 34.7179 41.3403 34.7319 41.3489 34.7456C41.3603 34.7644 41.4435 34.8803 41.379 34.7963C41.3882 34.8092 41.3981 34.8217 41.4084 34.834C41.4189 34.8467 41.4298 34.8592 41.4407 34.8716C41.4823 34.9209 41.5282 34.9672 41.5741 35.0106C41.5791 35.0152 41.5944 35.0283 41.6117 35.043C41.6454 35.0716 41.6866 35.1065 41.6726 35.0975C41.7238 35.1341 41.7761 35.1676 41.8295 35.1989C41.8696 35.2235 41.9156 35.2424 41.9557 35.267L41.963 35.2714L41.9958 35.2828L41.9965 35.283C42.051 35.302 42.1052 35.321 42.1623 35.3351C42.1939 35.3423 42.224 35.3481 42.2556 35.3554L42.2562 35.3555L42.3002 35.3576L42.3013 35.3577C42.327 35.3591 42.3527 35.3605 42.3785 35.3614C42.3987 35.3621 42.419 35.3626 42.4392 35.3626C42.4447 35.3626 42.4501 35.3625 42.4555 35.3624C42.478 35.362 42.5002 35.3606 42.5223 35.3589L42.5274 35.3582C42.5378 35.3567 42.5612 35.3537 42.5727 35.351L42.5736 35.3508C42.6407 35.3349 42.7079 35.3191 42.7735 35.296C42.7782 35.2942 42.7894 35.2895 42.801 35.2845L42.8168 35.2778L42.8185 35.2771L42.8689 35.251C42.874 35.2484 42.8768 35.2467 42.8768 35.2467C42.9012 35.2327 42.9254 35.2181 42.9492 35.2029C42.9658 35.1923 42.9822 35.1814 42.9985 35.1702C42.9787 35.1824 43.0541 35.1214 43.0633 35.112C43.0863 35.0903 43.1064 35.0671 43.1279 35.0454C43.1306 35.0424 43.1339 35.0383 43.1372 35.0339L43.1617 34.9962L43.1767 34.973C43.1925 34.9484 43.2054 34.9209 43.2212 34.8948C43.2915 34.7774 43.2068 34.9571 43.2298 34.8789C43.2499 34.8137 43.2685 34.7499 43.2857 34.6833C43.313 34.5834 43.2886 34.734 43.2886 34.6717C43.2886 34.6573 43.2897 34.6426 43.2907 34.6277L43.2913 34.6195C43.2922 34.607 43.2929 34.5945 43.2929 34.5819C43.2929 34.5701 43.2926 34.5583 43.2922 34.5465C43.2917 34.5332 43.291 34.5199 43.2904 34.5066L43.2892 34.4832L43.2886 34.4806C43.2753 34.4267 43.2594 34.3741 43.2434 34.3204C43.2422 34.3181 43.241 34.3159 43.2398 34.314C43.2212 34.2836 43.2054 34.2517 43.1853 34.2213C43.1796 34.2125 43.1743 34.2049 43.1697 34.1985C43.1552 34.182 43.141 34.165 43.125 34.1489C43.1007 34.1243 43.0748 34.0996 43.049 34.0765C43.0466 34.0743 43.0422 34.0706 43.037 34.0664L43.0216 34.0538L43.007 34.0435C42.9901 34.0316 42.9735 34.02 42.973 34.02C42.9486 34.0041 42.9242 33.9896 42.8998 33.9751C42.8496 33.9461 42.7979 33.92 42.7463 33.894C42.62 33.8288 42.8496 33.9302 42.7147 33.8795C42.686 33.8694 42.6587 33.8592 42.6315 33.8491C42.6126 33.8421 42.5934 33.8354 42.574 33.829Z" fill="#2E3553"/>
<path fill-rule="evenodd" clip-rule="evenodd" d="M44.431 22.4322C44.4901 20.8113 44.4022 19.0432 43.1595 17.8579C42.5053 17.2294 41.6516 16.9701 40.7563 17.0237C40.0512 17.0659 39.3122 17.2204 38.5879 17.3719L38.5858 17.3723C38.4805 17.3943 38.3755 17.4163 38.271 17.4378C38.1823 17.4561 38.0939 17.474 38.0059 17.4915C34.3086 18.2229 30.6357 19.0789 26.9944 20.0565C24.9485 20.6054 22.914 21.1935 20.8896 21.8191C20.756 21.8602 20.6458 21.9493 20.5761 22.0627C20.5181 22.0623 20.46 22.0621 20.4017 22.062C20.3192 22.0618 20.2366 22.062 20.1536 22.0625C19.5567 22.0668 18.9613 22.0914 18.3688 22.161C17.848 22.2218 17.3458 22.3014 16.8637 22.5158C15.8637 22.9619 15.2898 24.0366 15.1076 25.0823C14.9292 26.1004 15.0434 27.1299 15.1567 28.1507C15.1773 28.3366 15.1979 28.5222 15.2167 28.7075C15.3386 29.9096 15.4391 31.0364 15.4792 32.2052C15.5194 33.374 15.4835 34.5834 15.3343 35.7117C15.1722 36.9369 15.0919 38.1709 15.0876 39.4078C15.0833 40.6447 15.155 41.9062 15.2956 43.146C15.3573 43.692 15.4276 44.2482 15.6356 44.7594C15.8623 45.3199 16.2067 45.7704 16.6945 46.1252C17.1034 46.4236 17.6026 46.6177 18.0962 46.7147C18.6873 46.8306 19.2454 46.7784 19.838 46.7133C20.3139 46.6609 20.8056 46.6731 21.2937 46.6851H21.2957C21.4146 46.688 21.5332 46.691 21.6514 46.693L22.3896 46.7055L22.3947 46.7056L22.9339 46.7148C23.1393 46.7182 23.3445 46.7216 23.5467 46.7249C24.7771 46.7463 26.0072 46.7674 27.2373 46.7885C28.4986 46.8101 29.7599 46.8317 31.0217 46.8537L38.4966 46.9826C38.8319 46.9885 39.1672 46.9948 39.5024 47.001C40.401 47.0177 41.2996 47.0344 42.1982 47.0449C43.346 47.0594 44.5454 46.9942 45.5612 46.3975C46.0089 46.1339 46.402 45.7747 46.686 45.3359C46.9701 44.897 47.115 44.4133 47.2284 43.9324C47.4737 42.9027 47.544 41.8251 47.6014 40.7707C47.6501 39.8678 47.6192 38.9722 47.5402 38.0751C47.8731 38.0377 48.2044 37.9817 48.5225 37.8813C49.0361 37.719 49.5168 37.4482 49.874 37.0398C50.2112 36.6545 50.4393 36.2012 50.6 35.716C50.7607 35.2308 50.8338 34.7369 50.8941 34.2372C50.9673 33.6362 51.0146 33.0322 51.0361 32.4268C51.0708 31.481 51.0431 30.5332 50.9554 29.5905C50.9781 29.3717 50.9577 29.1473 50.8832 28.9237L50.8812 28.9074C50.8575 28.7145 50.7616 28.5237 50.6018 28.4277C50.1631 27.9334 49.4225 27.8495 48.7592 27.8298C48.5842 27.824 48.4106 27.8225 48.2356 27.8124C48.1509 27.808 48.0663 27.8008 47.9802 27.7921L47.977 27.7919L47.9716 27.7906C47.9502 27.7863 47.9288 27.7828 47.9074 27.7792C47.8857 27.7755 47.8641 27.7719 47.8424 27.7675C47.7692 27.7525 47.6985 27.7309 47.6268 27.709L47.6143 27.7052C47.6095 27.7036 47.6049 27.7018 47.6003 27.6999C47.5835 27.6901 47.5659 27.6816 47.5483 27.6731C47.528 27.6633 47.5075 27.6534 47.4881 27.6415C47.4863 27.6405 47.4838 27.6389 47.4807 27.6369C47.474 27.6324 47.4647 27.6261 47.4554 27.6198L47.4398 27.6092L47.4371 27.6069L47.436 27.6059C47.4231 27.5945 47.4097 27.5827 47.4048 27.5777C47.3998 27.5732 47.3867 27.5596 47.3742 27.5465C47.3717 27.5427 47.3681 27.5374 47.3639 27.5314L47.3519 27.5144L47.3485 27.5096C47.3329 27.4876 47.3158 27.4635 47.3102 27.4532C47.3082 27.4499 47.3048 27.4433 47.3006 27.4353L47.2812 27.3972C47.2732 27.3741 47.2542 27.325 47.2499 27.3127C47.2354 27.2683 47.2223 27.2233 47.2104 27.178C47.1951 27.1199 47.1816 27.0614 47.1695 27.0028C47.1648 26.9778 47.16 26.9524 47.1554 26.9268L47.1513 26.9032C47.1492 26.8905 47.1471 26.8778 47.1451 26.8652C47.1432 26.8548 47.1416 26.8445 47.1401 26.8341L47.1394 26.8232C47.1365 26.7673 47.1311 26.7118 47.1257 26.6563C47.1204 26.601 47.115 26.5457 47.1122 26.49C47.1014 26.3054 47.0968 26.1202 47.0922 25.935C47.0898 25.8387 47.0874 25.7424 47.0841 25.6462C47.0794 25.5067 47.0729 25.3674 47.0619 25.2285C46.9845 24.2509 46.6416 23.2805 45.7362 22.7881C45.3319 22.5684 44.8832 22.4751 44.431 22.4322ZM23.6423 22.1244L23.7246 22.1248L23.7409 22.1249C24.3893 22.1271 25.0381 22.1294 25.6868 22.1318C26.2787 22.1341 26.8706 22.1365 27.4621 22.1393C29.9542 22.1508 32.4464 22.1711 34.9385 22.2073C37.1776 22.2399 39.4155 22.2936 41.6533 22.3473L42.3991 22.3652C42.4836 22.367 42.5681 22.3687 42.6527 22.3702C42.7295 22.3716 42.8063 22.3729 42.8831 22.3742C43.0415 22.3769 43.1999 22.3796 43.3582 22.3831C43.3945 21.5331 43.4049 20.6855 43.1552 19.8813C43.1263 19.7887 43.0939 19.6949 43.0579 19.6043C43.0564 19.6014 43.0463 19.5786 43.0363 19.556L43.025 19.5305C43.0206 19.5205 43.0172 19.5129 43.016 19.5105C43.0009 19.4787 42.9858 19.4482 42.9708 19.4177L42.9687 19.4135C42.8797 19.2368 42.7778 19.0687 42.6616 18.9109C42.7162 18.9862 42.6257 18.8689 42.6143 18.8544C42.5813 18.8138 42.5454 18.7747 42.5095 18.7356C42.484 18.7086 42.4582 18.6821 42.4319 18.6562C42.3962 18.6209 42.3596 18.5865 42.3216 18.5532C42.3181 18.55 42.305 18.5393 42.2906 18.5276L42.2666 18.5078L42.2516 18.4952C42.2481 18.4922 42.2457 18.4901 42.2451 18.4894C42.218 18.4697 42.1901 18.4506 42.1623 18.4315C42.1417 18.4175 42.1208 18.4039 42.0996 18.3906C42.078 18.3771 42.0562 18.3639 42.0341 18.3512C42.0122 18.3385 41.9902 18.3262 41.968 18.3142C41.9506 18.3049 41.9331 18.2957 41.9156 18.2866C41.9099 18.2832 41.8856 18.2722 41.8637 18.2623C41.8305 18.2473 41.8028 18.2347 41.8539 18.2548C41.8123 18.2374 41.7678 18.2229 41.7247 18.2084C41.6329 18.1795 41.5397 18.1577 41.445 18.136C41.323 18.1085 41.092 18.0984 40.917 18.1027C40.5092 18.1111 40.1768 18.1741 39.7788 18.2497L39.729 18.2591C38.8381 18.4271 37.9471 18.6038 37.059 18.7863C35.2814 19.1528 33.5095 19.5467 31.7448 19.9696C29.0271 20.6211 26.3255 21.3396 23.6423 22.1244ZM49.8395 29.2001C49.8369 29.1961 49.8346 29.1919 49.8323 29.1876C49.8302 29.1839 49.8283 29.1801 49.8263 29.1763L49.8251 29.1741C49.821 29.1661 49.8169 29.1582 49.8123 29.1507L49.8117 29.1496L49.8038 29.1417C49.797 29.1347 49.7905 29.1276 49.7851 29.1203C49.7814 29.1154 49.7787 29.1117 49.7767 29.1088L49.7716 29.1055L49.765 29.1014C49.7305 29.0811 49.6961 29.0608 49.6617 29.042C49.6566 29.0395 49.6515 29.0371 49.6463 29.0346C49.5791 29.0228 49.5092 28.9898 49.4422 28.974C49.4005 28.9638 49.3589 28.9551 49.3159 28.9479C49.3063 28.9462 49.2975 28.9448 49.2896 28.9436C49.2536 28.9409 49.2178 28.9375 49.1819 28.9341C49.1563 28.9317 49.1306 28.9292 49.1048 28.927C49.0887 28.9257 49.0725 28.9244 49.0562 28.9233C48.9078 28.9134 48.7595 28.9098 48.6111 28.9063L48.5354 28.9045C48.1724 28.8943 47.7994 28.8798 47.4479 28.7857C47.3841 28.7686 47.3222 28.7491 47.2622 28.727C47.2659 28.8237 47.2696 28.9204 47.2733 29.017C47.2953 29.5903 47.3172 30.1637 47.3403 30.7366C47.3404 30.74 47.3405 30.7434 47.3406 30.7469C47.4753 30.7511 47.6101 30.752 47.7449 30.7482C47.9013 30.7438 48.0605 30.7351 48.2169 30.7134C48.149 30.7226 48.2149 30.7119 48.2585 30.7048L48.2857 30.7004C48.3313 30.6917 48.3758 30.6819 48.4211 30.672L48.4436 30.6671C48.5584 30.641 48.6703 30.6092 48.7808 30.5715C48.841 30.5512 48.8998 30.5309 48.9572 30.5063L48.9425 30.5125C48.9359 30.5152 48.9336 30.516 48.9345 30.5153C48.9368 30.5137 48.9602 30.5027 48.9828 30.4921L48.9862 30.4906C49.0021 30.4831 49.0171 30.4761 49.0232 30.473C49.1251 30.4209 49.2255 30.3629 49.3202 30.2992C49.3289 30.2934 49.3492 30.2786 49.369 30.2641L49.3763 30.2588L49.3776 30.2579L49.4031 30.2393L49.4127 30.2324C49.4241 30.2209 49.4963 30.1564 49.5168 30.137C49.5336 30.1211 49.55 30.1048 49.566 30.0882C49.5925 30.0608 49.6181 30.0325 49.643 30.0037L49.6432 30.0035C49.6537 29.9912 49.6642 29.9789 49.6743 29.9666C49.6763 29.9632 49.6804 29.9567 49.6875 29.9458C49.7162 29.9038 49.7435 29.8618 49.7678 29.8183C49.7731 29.8088 49.784 29.784 49.7939 29.7614C49.8104 29.7237 49.8244 29.6918 49.8059 29.7454C49.8104 29.7324 49.8149 29.7195 49.8193 29.7065C49.8249 29.6899 49.8304 29.6733 49.8355 29.6566C49.8424 29.6344 49.8486 29.6121 49.8539 29.5895C49.8561 29.5808 49.8603 29.5571 49.8644 29.5339C49.8666 29.5213 49.8688 29.509 49.8706 29.4993C49.8661 29.4525 49.8614 29.4057 49.8565 29.3589C49.851 29.306 49.8454 29.253 49.8395 29.2001ZM46.2618 30.6762C45.8633 30.6463 45.465 30.6206 45.0648 30.6236C44.4737 30.628 43.8367 30.6859 43.2283 30.7815C41.2499 31.09 38.8481 31.9242 38.1752 34.0504C37.8754 34.9976 38.0016 36.0621 38.63 36.8413C39.3115 37.6857 40.4536 37.8784 41.4608 37.9986C42.6774 38.1448 43.9027 38.2115 45.1265 38.2013C45.5752 38.197 46.023 38.1822 46.4707 38.1575C46.5455 39.0499 46.5721 39.9404 46.5211 40.8388C46.4923 41.3471 46.455 41.8555 46.4005 42.361C46.3704 42.6463 46.356 42.7665 46.3101 43.0388C46.2685 43.2894 46.2183 43.5385 46.1552 43.7833C46.1265 43.8933 46.0964 44.002 46.0605 44.1091C46.0522 44.1343 46.0438 44.1595 46.0354 44.1847C46.0263 44.2116 46.017 44.2386 46.0074 44.2655C45.9988 44.2916 45.9887 44.3162 45.9787 44.3423C45.9762 44.3491 45.9578 44.3955 45.9474 44.4217C45.9477 44.4203 45.9446 44.4266 45.9399 44.4368C45.9352 44.4468 45.9288 44.4607 45.9223 44.4748C45.912 44.4971 45.9015 44.5199 45.8969 44.5291C45.874 44.577 45.8496 44.6248 45.8223 44.6711C45.807 44.6972 45.7916 44.7233 45.776 44.749C45.7639 44.7688 45.7516 44.7883 45.7391 44.8073C45.7337 44.8154 45.7175 44.8373 45.7018 44.8585C45.6757 44.8938 45.6512 44.9269 45.6817 44.8898C45.6497 44.9291 45.6166 44.9672 45.5825 45.0042C45.5727 45.0148 45.5628 45.0253 45.5529 45.0357C45.518 45.0722 45.4821 45.1075 45.445 45.1418C45.4063 45.178 45.3661 45.2128 45.3245 45.2475C45.2968 45.2711 45.3004 45.2683 45.3098 45.2612C45.313 45.2588 45.3168 45.2558 45.3204 45.2532C45.3238 45.2508 45.3269 45.2486 45.3288 45.2475C45.3001 45.2693 45.2714 45.291 45.2427 45.3113C45.1847 45.3524 45.1256 45.3908 45.0655 45.4276C45.026 45.4517 44.986 45.4751 44.9457 45.4981C44.8984 45.5242 44.851 45.5502 44.8022 45.5734C44.7851 45.5826 44.6923 45.6259 44.6902 45.6277C43.7972 46.0042 42.811 45.9788 41.845 45.9538L41.841 45.9537C41.7022 45.9501 41.5639 45.9465 41.4263 45.9442L41.2226 45.9407C40.4472 45.9275 39.6717 45.9143 38.8962 45.901C37.2727 45.8733 35.649 45.8453 34.026 45.8167C31.5583 45.7747 29.0905 45.7327 26.6228 45.6893C25.3947 45.6676 24.1665 45.6473 22.9398 45.6255C22.6299 45.6205 22.32 45.615 22.0101 45.6096C21.7002 45.6042 21.3903 45.5988 21.0804 45.5937C21.0531 45.5932 21.0258 45.5926 20.9985 45.5919L20.8996 45.5896H20.8991C20.6564 45.5835 20.4132 45.5775 20.1708 45.5937C20.1008 45.5984 20.0309 45.6046 19.9611 45.6115C19.8579 45.6218 19.7548 45.634 19.6519 45.6461C19.5488 45.6582 19.4459 45.6703 19.343 45.6806C19.2009 45.6951 19.0574 45.7067 18.914 45.7081C18.8869 45.7084 18.8553 45.7081 18.822 45.7074C18.7828 45.7066 18.7411 45.7051 18.7016 45.7032C18.6282 45.6998 18.5618 45.6951 18.5309 45.6907C18.3702 45.669 18.0747 45.5966 17.8709 45.5242C17.8599 45.5203 17.8376 45.5119 17.8153 45.5035L17.808 45.5007L17.7767 45.4888C17.7663 45.4849 17.7581 45.4819 17.7542 45.4806L17.7461 45.477C17.7318 45.4706 17.7154 45.4633 17.716 45.4633L17.6922 45.4519L17.6919 45.4517L17.6916 45.4516C17.6663 45.4395 17.6405 45.4272 17.6155 45.4141C17.5757 45.3934 17.5361 45.372 17.497 45.3497C17.4316 45.3126 17.3675 45.2733 17.3056 45.2316C17.2968 45.2253 17.2796 45.2128 17.2618 45.1999L17.2568 45.1962L17.2265 45.1742C17.2169 45.1672 17.2093 45.1618 17.2059 45.1594C17.1985 45.1522 17.1323 45.0944 17.1134 45.0766C17.0661 45.0332 17.0216 44.9868 16.9771 44.939C16.9678 44.929 16.9589 44.9185 16.95 44.9081C16.941 44.8975 16.932 44.887 16.9226 44.8768C16.9162 44.8696 16.9116 44.8644 16.9083 44.861L16.9039 44.855C16.7476 44.6436 16.6586 44.4495 16.5897 44.2424C16.5108 44.0034 16.4592 43.7558 16.419 43.5081C16.3831 43.285 16.3573 43.0373 16.3286 42.7549C16.297 42.4464 16.2698 42.1379 16.2468 41.828C16.1564 40.594 16.1349 39.3557 16.1937 38.1188C16.2224 37.5134 16.2683 36.9094 16.3358 36.3069C16.3568 36.1192 16.3793 35.9359 16.4016 35.7547L16.4017 35.754C16.4509 35.3538 16.4989 34.9634 16.5266 34.5559C16.6728 32.3638 16.4447 30.1666 16.2185 27.9873L16.2184 27.9862L16.178 27.5966C16.1163 27.0013 16.0617 26.4003 16.0976 25.8021C16.1148 25.5226 16.132 25.3835 16.1995 25.1011C16.2216 25.0068 16.2476 24.9124 16.2767 24.8189C16.2833 24.7975 16.2901 24.7762 16.297 24.7549C16.3487 24.5985 16.3573 24.5753 16.4219 24.445C16.6399 24.0018 16.8896 23.7063 17.2913 23.5036L17.3127 23.4929C17.3207 23.4889 17.3287 23.4849 17.3368 23.4811C17.3425 23.4783 17.3483 23.4756 17.354 23.473C17.343 23.4777 17.3232 23.4854 17.3242 23.4848C17.3248 23.4844 17.3314 23.4816 17.3487 23.4746C17.3752 23.4641 17.4021 23.454 17.4293 23.4443C17.4507 23.4367 17.4721 23.4295 17.4936 23.4225C17.5998 23.3863 17.7088 23.3573 17.8179 23.3341C17.9269 23.3109 18.0431 23.2892 18.1579 23.2718L18.1677 23.2702L18.1718 23.2696C18.1871 23.2672 18.202 23.2648 18.2172 23.2628L18.2139 23.2632C18.1991 23.2649 18.1907 23.2657 18.231 23.2603C18.289 23.2525 18.347 23.2458 18.4039 23.2393L18.4233 23.2371C19.5655 23.108 20.7171 23.1406 21.8626 23.1731L21.9743 23.1763C22.9866 23.2048 24.0253 23.2078 25.0569 23.2108C25.23 23.2113 25.4029 23.2118 25.5754 23.2125C28.0403 23.2226 30.5052 23.2356 32.9686 23.2631C35.432 23.2907 37.8811 23.3384 40.3359 23.3979C40.5373 23.4027 40.7387 23.4071 40.94 23.4114C41.1288 23.4154 41.3175 23.4192 41.5062 23.4231C42.3299 23.4399 43.1536 23.4567 43.9773 23.4862C44.092 23.4905 44.2068 23.4963 44.323 23.505C44.3804 23.5094 44.4378 23.5152 44.4952 23.5209C44.4952 23.5209 44.5446 23.5279 44.5511 23.5283C44.5725 23.5319 44.6012 23.5369 44.6057 23.5383C44.7262 23.56 44.8453 23.5876 44.9615 23.6252C45.0074 23.6403 45.0534 23.6553 45.0984 23.6732C45.1026 23.6754 45.1089 23.6786 45.1179 23.6832C45.1288 23.6889 45.1397 23.6945 45.1506 23.7001C45.1727 23.7114 45.1948 23.7227 45.2169 23.7353C45.2408 23.7486 45.2642 23.7624 45.2872 23.7768C45.3047 23.7877 45.322 23.799 45.3391 23.8107C45.3535 23.8205 45.3677 23.8306 45.3819 23.8411C45.3259 23.8005 45.422 23.8773 45.4378 23.8903C45.4459 23.8975 45.4538 23.9047 45.4618 23.912C45.4722 23.9217 45.4825 23.9315 45.4927 23.9415C45.5107 23.9591 45.5282 23.9772 45.5454 23.996C45.5515 24.0021 45.5573 24.0083 45.563 24.0147C45.5678 24.0199 45.5724 24.0251 45.577 24.0303L45.5793 24.0329L45.5942 24.0496C45.5972 24.0526 45.6095 24.0675 45.6204 24.0807L45.625 24.0862C45.6297 24.0933 45.6374 24.1043 45.6456 24.1161C45.6597 24.1364 45.6754 24.1589 45.6803 24.1669C45.709 24.2118 45.7362 24.2596 45.7621 24.3074C45.7746 24.3309 45.7866 24.3549 45.7981 24.3791C45.8064 24.3967 45.8145 24.4143 45.8223 24.432C45.7957 24.3739 45.8053 24.398 45.8191 24.4331C45.8278 24.4549 45.838 24.4809 45.8424 24.4942C45.8726 24.5811 45.8969 24.671 45.917 24.7607C45.9285 24.8143 45.94 24.8679 45.95 24.9215C45.9522 24.9354 45.9584 24.9785 45.9632 25.0106C45.966 25.0286 45.9683 25.0431 45.9692 25.0473L45.9709 25.0638C45.9736 25.0899 45.9767 25.1198 45.9773 25.1286V25.1289C45.9816 25.1766 45.9859 25.2243 45.9887 25.272C45.9974 25.385 46.0017 25.4979 46.006 25.6109C46.0096 25.7137 46.0121 25.8166 46.0146 25.9194C46.0221 26.2277 46.0297 26.5357 46.0662 26.842C46.0832 26.9843 46.1028 27.1309 46.1307 27.2764C46.1303 27.2879 46.1304 27.2995 46.1308 27.3113C46.1537 27.8796 46.1754 28.4483 46.1972 29.017C46.2185 29.5702 46.2396 30.1234 46.2618 30.6762ZM49.9692 31.1664C49.8471 31.2572 49.7195 31.3368 49.5899 31.4028C48.5354 31.9416 47.4206 31.8562 46.237 31.762C45.0533 31.6679 43.8912 31.7215 42.7477 31.9793C42.2368 32.0956 41.7316 32.2419 41.2461 32.4407C41.2382 32.4445 41.1449 32.4853 41.1265 32.4934C41.0662 32.5224 41.0059 32.5499 40.9457 32.5803C40.8438 32.631 40.7434 32.6861 40.6444 32.7426C40.5863 32.7755 40.529 32.81 40.4725 32.8457C40.4172 32.8806 40.3626 32.9168 40.3087 32.954L40.2973 32.9618C40.1924 33.0337 40.1908 33.0348 40.1035 33.1075C39.9221 33.2597 39.7529 33.4282 39.6025 33.6133C39.6061 33.6091 39.5943 33.6245 39.5815 33.6411C39.5702 33.6557 39.5582 33.6714 39.5554 33.6753L39.5476 33.6864L39.5322 33.7083C39.5282 33.7141 39.5242 33.72 39.5202 33.726L39.5124 33.7375C39.4837 33.7796 39.4565 33.823 39.4306 33.8665C39.3747 33.962 39.3244 34.0605 39.2785 34.1619C39.2426 34.2401 39.3044 34.0909 39.2742 34.1735C39.2642 34.1981 39.2556 34.2213 39.247 34.2459C39.2298 34.2937 39.214 34.3429 39.1996 34.3922C39.1681 34.4994 39.1422 34.608 39.1222 34.7166C39.1212 34.7232 39.1137 34.7691 39.1108 34.7843L39.1098 34.793L39.1093 34.7978L39.1092 34.7992C39.1072 34.8232 39.1052 34.8472 39.1033 34.8712C39.1012 34.8979 39.0993 34.9246 39.0978 34.9513C39.0935 35.0599 39.0949 35.17 39.1035 35.2786L39.1044 35.2868C39.1054 35.296 39.1069 35.3107 39.1081 35.3236C39.11 35.3368 39.1121 35.3537 39.1121 35.3568L39.1144 35.3685C39.1168 35.3801 39.119 35.3916 39.1213 35.4032C39.1242 35.4183 39.1272 35.4334 39.1302 35.4484C39.134 35.4668 39.1379 35.485 39.1422 35.5031C39.1551 35.5596 39.1709 35.6146 39.1881 35.6696C39.1899 35.675 39.1937 35.6861 39.1982 35.6992L39.1987 35.7007C39.2042 35.7164 39.2105 35.7348 39.2154 35.7495L39.2191 35.7607C39.2227 35.7687 39.2277 35.7801 39.2321 35.7904C39.237 35.8018 39.2414 35.8119 39.2426 35.8145C39.2527 35.8362 39.2642 35.8579 39.2757 35.8797C39.3015 35.9304 39.3302 35.9796 39.3617 36.0274C39.3641 36.0311 39.3684 36.0374 39.3738 36.0449L39.3838 36.059L39.4004 36.0823C39.4093 36.0947 39.4174 36.1061 39.4221 36.1128C39.4386 36.1306 39.4814 36.179 39.4923 36.191C39.5175 36.2173 39.5436 36.2427 39.5702 36.2676C39.5791 36.276 39.5881 36.2844 39.5971 36.2927C39.6085 36.3033 39.62 36.3138 39.6315 36.3243L39.6524 36.3438C39.6727 36.3588 39.6943 36.3738 39.7159 36.3888L39.7167 36.3893L39.719 36.3909C39.8108 36.4532 39.9055 36.5097 40.0045 36.5589C40.0375 36.5749 40.0719 36.5908 40.1049 36.6067C40.1896 36.6444 40.0447 36.5836 40.1308 36.6169L40.1688 36.6308C40.2083 36.6454 40.2485 36.6602 40.2886 36.6733C40.3962 36.7095 40.5052 36.74 40.6143 36.7675C41.1196 36.8918 41.4985 36.9274 42.0016 36.9747C42.0555 36.9798 42.1109 36.985 42.1681 36.9905C42.7778 37.0485 43.389 37.0861 44.0017 37.1049C45.1768 37.141 46.3789 37.1354 47.5472 36.9878C47.5379 36.9887 47.5874 36.9811 47.6342 36.9739L47.7061 36.963C47.7635 36.9529 47.8209 36.9413 47.8783 36.9297C48.0002 36.9036 48.1222 36.8732 48.2413 36.8356C48.3044 36.8153 48.3675 36.7921 48.4307 36.7689C48.511 36.7385 48.435 36.7718 48.511 36.7327C48.5728 36.7003 48.6333 36.6669 48.6927 36.6317C48.7394 36.604 48.7855 36.5751 48.831 36.5445C48.9084 36.4923 48.785 36.5836 48.8539 36.5285L48.9142 36.4764C48.9529 36.4416 48.9902 36.4054 49.0275 36.3678C49.0691 36.3243 49.1107 36.2779 49.1495 36.2316C49.1574 36.2215 49.1656 36.2113 49.1738 36.2012L49.1785 36.1955C49.1808 36.1918 49.1848 36.1858 49.1911 36.1766C49.2542 36.0824 49.3145 35.9868 49.369 35.8869C49.3798 35.8667 49.3904 35.8463 49.4009 35.8257C49.4181 35.7916 49.4347 35.757 49.4508 35.7218C49.459 35.7051 49.4673 35.6877 49.475 35.6701L49.4809 35.6552C49.6531 35.2149 49.7492 34.7485 49.8138 34.2807C49.8266 34.188 49.8037 34.3545 49.8152 34.2633C49.8166 34.2504 49.8184 34.2372 49.8201 34.224C49.822 34.2104 49.8238 34.1968 49.8252 34.1836C49.8344 34.1099 49.8423 34.0349 49.8502 33.9608L49.8525 33.9389C49.8668 33.7987 49.8797 33.6585 49.8926 33.5184L49.8927 33.5174C49.9185 33.2118 49.9386 32.9077 49.9529 32.6021C49.9741 32.1239 49.9795 31.6449 49.9692 31.1664Z" fill="#2E3553"/>
</svg>
