<svg width="65" height="65" viewBox="0 0 65 65" fill="none" xmlns="http://www.w3.org/2000/svg">
<circle cx="32.5" cy="32.5" r="32.5" fill="#E7FFE8"/>
<path d="M21.9703 24.2288C21.9193 24.1434 21.8697 24.058 21.8262 23.9682C21.8292 23.9754 21.7616 23.8248 21.7916 23.8943C21.8217 23.9638 21.7586 23.8089 21.7616 23.8161C21.6865 23.6178 21.628 23.4122 21.5799 23.2051C21.5604 23.1153 21.5424 23.0256 21.5259 22.9358C21.5154 22.8808 21.5079 22.8257 21.4989 22.7722C21.4703 22.5926 21.5094 22.8764 21.4884 22.6954C21.4658 22.4898 21.4463 22.2842 21.4343 22.0771C21.3863 21.2141 21.4388 20.3497 21.4854 19.4882C21.5394 18.4891 21.631 17.5797 21.8787 16.6168C22.1024 15.7495 22.3156 15.0183 22.8141 14.3001C22.9147 14.1538 22.7525 14.3667 22.8681 14.2306C22.8997 14.1944 22.9312 14.1582 22.9627 14.1234C23.0348 14.0467 23.1099 13.9714 23.1879 13.9019C23.3576 13.7513 23.4342 13.7006 23.6654 13.5761C23.7464 13.5327 23.8305 13.4921 23.9161 13.4545C24.0782 13.3821 23.82 13.4834 23.9897 13.427C24.0257 13.4154 24.0602 13.4023 24.0948 13.3908C24.3095 13.3198 24.5302 13.2691 24.7539 13.2358C24.6413 13.2532 24.8244 13.2286 24.8304 13.2286C24.8785 13.2242 24.925 13.2199 24.9731 13.217C25.0782 13.2112 25.1833 13.2083 25.2869 13.2083C25.3829 13.2083 25.4775 13.2127 25.5736 13.2199C25.6307 13.2242 25.6877 13.23 25.7448 13.2358C25.8138 13.2431 25.8198 13.2445 25.7658 13.2387C25.7943 13.2431 25.8229 13.2474 25.8499 13.2518C26.2838 13.3227 26.7087 13.4617 27.051 13.621C27.9008 14.0192 28.5509 14.5419 29.201 15.1978C29.8511 15.8538 30.348 16.4836 30.839 17.2583C31.384 18.1184 31.7848 18.9539 32.1001 19.8806C32.4154 20.8073 32.6331 21.8208 32.7097 22.7649C32.7322 23.0473 32.9514 23.3224 33.2727 23.3079C33.558 23.2949 33.8613 23.0675 33.8357 22.7649C33.6751 20.8044 33.082 18.893 32.0911 17.1729C31.6077 16.3345 31.0281 15.5468 30.372 14.8257C29.7159 14.1046 28.9337 13.4067 28.0539 12.9071C26.3438 11.937 24.0647 11.7603 22.4763 13.0606C21.7061 13.6905 21.2887 14.6302 21.0079 15.5439C20.6986 16.5517 20.5035 17.5797 20.4149 18.6266C20.3263 19.6735 20.2617 20.7421 20.2948 21.7948C20.3278 22.8475 20.4539 23.8871 20.9959 24.7761C21.149 25.0295 21.5034 25.1193 21.7661 24.9716C22.0289 24.8239 22.1219 24.4822 21.9688 24.2288H21.9703Z" fill="#2E3553"/>
<path d="M21.1926 17.2887C19.9645 17.0889 18.6132 16.9079 17.5037 17.5971C17.0052 17.907 16.6149 18.3558 16.4422 18.909C16.259 19.4983 16.3476 20.1513 16.5878 20.7117C16.8746 21.3792 17.3475 21.9294 17.8295 22.4753L17.9436 21.6225C17.0818 21.983 16.4047 22.7751 16.187 23.6554C15.9423 24.6444 16.247 25.6898 16.9527 26.4355C17.1584 26.6527 17.5412 26.6368 17.7484 26.4355C17.9721 26.2198 17.9541 25.8853 17.7484 25.6681C17.5277 25.435 17.3746 25.1599 17.2875 24.8268C17.2094 24.53 17.2064 24.1883 17.286 23.8943C17.3085 23.8089 17.3385 23.7264 17.3701 23.6438C17.3821 23.612 17.4031 23.5758 17.3776 23.6279C17.4016 23.5801 17.4241 23.5323 17.4511 23.486C17.4947 23.4093 17.5412 23.334 17.5938 23.2616C17.6148 23.2326 17.6358 23.2037 17.6568 23.1761C17.6028 23.2442 17.6779 23.1544 17.6884 23.1428C17.7484 23.0762 17.8115 23.0125 17.8775 22.9532C17.9106 22.9227 17.9451 22.8952 17.9796 22.8648C18.1042 22.7562 17.9391 22.8909 18.0157 22.8359C18.1703 22.7273 18.337 22.6375 18.5141 22.5636C18.873 22.4131 18.8354 21.9468 18.6282 21.7108C18.421 21.4748 18.2184 21.2474 18.0487 21.0172C17.879 20.787 17.6914 20.4887 17.6058 20.2527C17.4917 19.9414 17.4541 19.7314 17.4812 19.4187C17.4902 19.3173 17.4722 19.4114 17.4992 19.3202C17.5217 19.2406 17.5397 19.1609 17.5728 19.0842C17.5457 19.1493 17.6283 18.9872 17.6388 18.9698C17.6568 18.9394 17.6764 18.9104 17.6959 18.8815C17.7304 18.8351 17.7379 18.825 17.7154 18.8525C17.6929 18.88 17.7004 18.8713 17.7394 18.8264C17.7634 18.8004 17.7875 18.7743 17.8115 18.7497C17.861 18.699 17.9151 18.6527 17.9706 18.6078C17.8971 18.6686 18.0352 18.5629 18.0532 18.5513C18.1072 18.5166 18.1613 18.4847 18.2168 18.4558C18.2814 18.421 18.3475 18.3892 18.415 18.3602C18.3265 18.3978 18.5201 18.324 18.5381 18.3182C18.6598 18.2791 18.7859 18.2487 18.912 18.2255C19.5486 18.1097 20.2557 18.2328 20.8968 18.3385C21.1866 18.3863 21.5169 18.2646 21.589 17.9591C21.6505 17.697 21.5064 17.3423 21.1956 17.2916L21.1926 17.2887Z" fill="#2E3553"/>
<path d="M36.1509 12.3917C34.9437 11.5634 33.5234 10.7149 31.977 11.1117C30.5312 11.4823 29.7129 12.7739 29.0478 13.9613C28.9037 14.219 28.9818 14.552 29.2505 14.7041C29.5193 14.8561 29.8751 14.7678 30.0207 14.5086C30.3135 13.9873 30.6243 13.4212 31.0086 12.9955C31.393 12.5698 31.7818 12.286 32.2758 12.1585C32.7998 12.0239 33.4063 12.1325 33.9138 12.341C34.5144 12.5871 35.0533 12.9665 35.5818 13.3299C35.8296 13.4994 36.2079 13.3719 36.352 13.1345C36.5172 12.8622 36.3986 12.5625 36.1494 12.3917H36.1509Z" fill="#2E3553"/>
<path d="M34.3852 22.3884C34.3072 22.1104 34.2967 21.9135 34.3237 21.5892C34.3237 21.5819 34.3372 21.4835 34.3267 21.5559C34.3312 21.5269 34.3372 21.4965 34.3432 21.4675C34.3567 21.398 34.3717 21.33 34.3897 21.2619C34.4303 21.1055 34.4828 20.9506 34.5444 20.8015C34.5249 20.8464 34.5909 20.7001 34.6014 20.6798C34.633 20.6161 34.666 20.5524 34.7005 20.4887C34.7801 20.3454 34.8672 20.2064 34.9618 20.0717C35.1344 19.8241 35.3131 19.6214 35.5323 19.3883C36.4181 18.4529 37.4691 17.6594 38.1597 16.5633C38.511 16.0043 38.7227 15.402 38.8008 14.7547C38.8383 14.4463 38.8263 14.2986 38.9329 14.009C38.9644 13.9222 38.9014 14.0641 38.9449 13.9815C38.9584 13.9555 38.9735 13.9309 38.9885 13.9062C39.0425 13.815 39.02 13.8585 39.0005 13.8816C39.0245 13.8541 39.0515 13.8295 39.0771 13.8034C39.0771 13.8034 39.1461 13.7441 39.1041 13.7759C39.0575 13.8121 39.1506 13.747 39.1611 13.7397C39.1852 13.7252 39.2092 13.7137 39.2332 13.6992C39.3698 13.6181 39.1942 13.7064 39.2782 13.676C39.5545 13.5746 39.7362 13.5761 40.0244 13.6413C40.3367 13.7122 40.595 13.815 40.8682 13.9714C41.0183 14.0583 41.0544 14.0785 41.1715 14.1929C41.248 14.2668 41.3126 14.3522 41.3501 14.4463C41.3306 14.3956 41.3667 14.5057 41.3697 14.5158C41.3772 14.5433 41.3847 14.5709 41.3892 14.5984C41.3712 14.497 41.3847 14.7128 41.3892 14.6606C41.3937 14.6027 41.3772 14.7099 41.3742 14.7243C41.3667 14.749 41.3592 14.7736 41.3501 14.7967C41.3832 14.7113 41.3531 14.788 41.3426 14.804C41.3186 14.8387 41.2991 14.8764 41.2751 14.9111C41.2601 14.9328 41.245 14.9531 41.23 14.9734C41.2856 14.8995 41.2135 14.9908 41.2015 15.0038C41.149 15.0632 41.0949 15.1211 41.0409 15.1804C40.9253 15.3064 40.8142 15.4353 40.7136 15.5728C40.4853 15.8842 40.3757 16.2751 40.3818 16.6545C40.3923 17.4378 40.8367 18.0894 41.3066 18.6932L42.1909 18.0358C42.1564 18.004 42.1219 17.9707 42.0858 17.9388C41.8666 17.7347 41.5078 17.7289 41.2901 17.9388C41.0724 18.1488 41.0709 18.5021 41.2901 18.7063C41.3246 18.7381 41.3592 18.7714 41.3952 18.8033C41.5949 18.9901 41.9147 19.0147 42.1339 18.8453C42.332 18.6932 42.4492 18.3645 42.2795 18.1444C42.0708 17.8766 41.8606 17.6087 41.7 17.3104C41.5633 17.057 41.4958 16.8109 41.5108 16.5329C41.5168 16.4141 41.5183 16.4764 41.5138 16.501C41.5213 16.4619 41.5303 16.4243 41.5423 16.3852C41.5528 16.349 41.5648 16.307 41.5814 16.2722C41.5663 16.3012 41.5618 16.3026 41.6009 16.2476C41.6399 16.1926 41.6759 16.1303 41.7195 16.0753C41.712 16.084 41.6744 16.1303 41.715 16.084C41.7435 16.0507 41.7735 16.0174 41.8036 15.9841C42.0093 15.7582 42.233 15.5338 42.3636 15.2572C42.7209 14.5057 42.3771 13.705 41.7285 13.2228C41.1475 12.7898 40.3157 12.4698 39.5725 12.5176C38.7858 12.5669 38.1162 12.9882 37.8489 13.7166C37.7318 14.0366 37.7183 14.387 37.6793 14.7214C37.6793 14.7316 37.6612 14.8518 37.6703 14.7953C37.6793 14.7388 37.6582 14.8576 37.6567 14.8677C37.6432 14.9357 37.6282 15.0023 37.6117 15.069C37.5742 15.2109 37.5081 15.4034 37.4661 15.5019C37.2349 16.0405 36.846 16.5285 36.4331 16.9629C35.9572 17.4639 35.4302 17.9171 34.9437 18.408C33.8222 19.5345 32.8508 21.0505 33.3042 22.6737C33.3838 22.9575 33.7051 23.1298 33.9964 23.0531C34.2876 22.9763 34.4693 22.6694 34.3897 22.3855L34.3852 22.3884Z" fill="#2E3553"/>
<path d="M39.1476 24.0087C39.1476 23.8552 39.1536 23.7032 39.1671 23.5512C39.1837 23.3586 39.1837 23.3571 39.2137 23.1848C39.2677 22.8837 39.3458 22.5868 39.4464 22.2972C39.556 21.9845 39.6341 21.8107 39.8022 21.5066C39.9509 21.2373 40.122 20.9781 40.3127 20.7334C40.3712 20.6581 40.2722 20.7812 40.3337 20.7074C40.3577 20.6769 40.3833 20.648 40.4088 20.619C40.4523 20.5669 40.4989 20.5162 40.5439 20.467C40.6565 20.3454 40.7736 20.2295 40.8952 20.118C41.14 19.8936 41.3787 19.7184 41.6324 19.533C42.2255 19.1001 42.823 18.6541 43.1953 18.0156C43.383 17.6941 43.4986 17.3481 43.5317 16.9817C43.5647 16.6154 43.4431 16.2679 43.3995 15.9073C43.4025 15.9363 43.3995 15.9624 43.398 15.8639C43.398 15.8219 43.395 15.7814 43.3965 15.7394C43.3965 15.7336 43.407 15.6337 43.401 15.7017C43.401 15.6959 43.4326 15.596 43.404 15.6655C43.4145 15.6424 43.4296 15.6206 43.4431 15.5975C43.4836 15.5236 43.392 15.6467 43.4491 15.5844C43.4731 15.5584 43.4986 15.5352 43.5241 15.512C43.5632 15.4773 43.4776 15.5323 43.5602 15.4889C43.5917 15.4715 43.6232 15.4541 43.6548 15.4382C43.6337 15.4483 43.5617 15.4657 43.6713 15.4324C43.7403 15.4107 43.8094 15.389 43.8815 15.3788C44.0136 15.3614 44.2178 15.3745 44.3754 15.3904C44.6307 15.4179 44.9339 15.4729 45.2012 15.5453C45.2673 15.5627 45.3318 15.583 45.3964 15.6047C45.4279 15.6163 45.4594 15.6264 45.491 15.6395C45.4669 15.6308 45.4024 15.5946 45.494 15.6438C45.551 15.6742 45.6096 15.7017 45.6636 15.735C45.6906 15.7509 45.7177 15.7683 45.7417 15.7871C45.6996 15.7553 45.7012 15.7509 45.7357 15.79C45.7612 15.8176 45.8543 15.9435 45.7987 15.8509C45.8168 15.8813 45.8798 16.0275 45.8483 15.9276C45.8903 16.0579 45.8933 16.1433 45.8663 16.2679C45.7942 16.6009 45.6426 16.9122 45.5615 17.2438C45.1411 18.9452 45.9519 20.5655 46.7506 22.0351C46.8797 22.2726 47.21 22.3609 47.4533 22.2567C47.6845 22.1582 47.8872 21.8701 47.7791 21.6167C47.746 21.5399 47.7145 21.4646 47.6815 21.3879C47.5659 21.1171 47.3076 20.9245 46.9893 21.0085C46.7236 21.0795 46.4789 21.4038 46.596 21.676C46.629 21.7528 46.6605 21.8281 46.6936 21.9048L47.722 21.4864C47.0404 20.231 46.2702 18.8062 46.6816 17.4031C46.7867 17.044 46.9368 16.7052 46.9893 16.333C47.0449 15.9348 46.9548 15.5338 46.7011 15.2123C46.3032 14.707 45.6501 14.5042 45.027 14.3985C44.2238 14.2624 43.2914 14.1698 42.6714 14.7996C42.3726 15.1037 42.242 15.5135 42.2795 15.929C42.314 16.3128 42.4447 16.6342 42.4071 16.9846C42.4101 16.9586 42.4251 16.9006 42.4011 17.0092C42.3921 17.0469 42.3846 17.0831 42.3741 17.1207C42.3531 17.1946 42.329 17.2684 42.2975 17.3379C42.326 17.2728 42.284 17.3611 42.281 17.3669C42.2615 17.4016 42.2435 17.4364 42.2239 17.4697C42.1744 17.5551 42.1189 17.6362 42.0603 17.7158C42.0168 17.7752 42.0318 17.7549 41.9582 17.836C41.9057 17.8939 41.8501 17.9519 41.7916 18.0069C41.6504 18.1415 41.4988 18.2675 41.3441 18.3877C40.8127 18.8004 40.1836 19.2174 39.7076 19.743C38.6417 20.9217 38.0276 22.4435 38.0201 24.0102C38.0201 24.294 38.2798 24.5662 38.5831 24.5532C38.8864 24.5401 39.1446 24.3142 39.1461 24.0102L39.1476 24.0087Z" fill="#2E3553"/>
<path d="M18.6297 24.4156C19.0756 24.8514 19.5636 25.2974 20.1461 25.5595C20.8022 25.8534 21.4869 25.8969 22.155 25.6102C22.748 25.3553 23.1849 24.8572 23.5678 24.3693C23.7585 24.126 23.856 23.9841 24.0362 23.7843C24.1233 23.6887 24.2134 23.5946 24.3095 23.5077C24.3635 23.4599 24.4176 23.4107 24.4761 23.3687C24.4671 23.376 24.4191 23.4093 24.4716 23.376C24.5091 23.3513 24.5452 23.3282 24.5842 23.305C24.6157 23.2876 24.7734 23.2123 24.6863 23.2471C24.7434 23.2254 24.8019 23.208 24.862 23.1935C24.8875 23.1877 24.913 23.1819 24.94 23.1776C24.8424 23.1964 24.928 23.1776 24.9505 23.1776C24.9881 23.1776 25.0256 23.1776 25.0647 23.1776C25.0962 23.1776 25.1502 23.1848 25.0887 23.1761C25.1652 23.1877 25.2388 23.2094 25.3124 23.2341C25.3124 23.2341 25.398 23.2688 25.3529 23.2485C25.3004 23.2254 25.407 23.2775 25.4175 23.2833C25.4775 23.3151 25.5361 23.3513 25.5931 23.389C25.5991 23.3933 25.6742 23.4513 25.6217 23.4093C25.6607 23.4397 25.6967 23.4715 25.7328 23.5048C26.1832 23.9132 26.4489 24.501 26.8423 24.9919C27.2357 25.4828 27.7777 25.9273 28.4217 26.0706C29.1049 26.2227 29.776 26.0214 30.33 25.629C30.884 25.2366 31.3765 24.7327 31.8779 24.2665C32.1497 24.0131 32.4229 23.7611 32.6947 23.5077C32.7487 23.457 32.8028 23.4064 32.8583 23.3571C32.8929 23.3267 32.9829 23.2529 32.9829 23.2529C32.9574 23.2703 33.1466 23.1631 33.1076 23.1848C33.064 23.208 33.1406 23.1776 33.1466 23.1776C33.049 23.1602 33.2081 23.1689 33.1391 23.179C33.07 23.1892 33.1901 23.2109 33.1331 23.1761C33.0685 23.137 33.1496 23.1863 33.1496 23.1863C33.1826 23.2384 33.1886 23.2094 33.1496 23.179C33.1736 23.1979 33.1976 23.221 33.2202 23.2427C33.2382 23.2601 33.2532 23.2775 33.2697 23.2949C33.3283 23.3542 33.2247 23.2312 33.2742 23.3007C33.3132 23.3557 33.3508 23.4107 33.3868 23.4686C33.5324 23.7032 33.6571 23.9479 33.8222 24.1709C34.1931 24.669 34.6495 25.1034 35.196 25.419C35.7425 25.7347 36.3385 25.9143 36.9571 25.9114C37.6147 25.9085 38.2588 25.6826 38.7933 25.3191C39.3278 24.9557 39.7557 24.5343 40.1385 24.0536C40.2031 23.9725 40.2677 23.8914 40.3307 23.8089C40.3442 23.7915 40.3968 23.7278 40.3277 23.8118C40.3427 23.7944 40.3562 23.777 40.3712 23.7597C40.4148 23.7075 40.4598 23.6554 40.5049 23.6062C40.5754 23.5294 40.6535 23.4643 40.7301 23.3933C40.6385 23.4788 40.7586 23.3774 40.7916 23.3586C40.8066 23.3499 40.8352 23.3412 40.8472 23.3296C40.7541 23.3513 40.8862 23.2934 40.8472 23.3296C40.8787 23.3224 41.0093 23.3021 40.9373 23.305C40.8562 23.3094 41.0153 23.3108 41.0394 23.3108C40.9268 23.3065 41.0003 23.3036 41.0319 23.3137C41.0649 23.3253 41.1024 23.3325 41.137 23.3441C41.149 23.3484 41.2315 23.3875 41.164 23.3542C41.1985 23.3702 41.233 23.389 41.2661 23.4078C41.4132 23.4904 41.4162 23.4961 41.5498 23.6134C41.6609 23.7104 41.7645 23.8132 41.8696 23.9146C42.3531 24.3852 42.8771 24.8413 43.4851 25.157C44.6727 25.7724 46.3047 25.8274 47.2191 24.7298C47.4247 24.4837 47.5794 24.21 47.659 23.9001C47.7295 23.625 47.5674 23.2992 47.2656 23.2326C46.9638 23.166 46.6485 23.3166 46.5735 23.612C46.5584 23.6699 46.5419 23.7264 46.5209 23.7828C46.4909 23.8639 46.5569 23.7162 46.5164 23.793C46.5044 23.8161 46.4924 23.8379 46.4804 23.861C46.4503 23.9132 46.4173 23.9624 46.3828 24.0116C46.3317 24.0826 46.4323 23.958 46.3738 24.0218C46.3437 24.0536 46.3152 24.0855 46.2837 24.1159C46.2401 24.1579 46.1936 24.1984 46.1456 24.2375C46.0975 24.2766 46.1456 24.2375 46.1546 24.2317C46.126 24.252 46.096 24.2708 46.066 24.2896C46.0134 24.3215 45.9594 24.3519 45.9038 24.3794C45.8798 24.391 45.8558 24.4026 45.8318 24.4142C45.9174 24.3736 45.8123 24.4214 45.7927 24.4272C45.2673 24.6067 44.6937 24.5228 44.1998 24.2925C43.6187 24.0218 43.1878 23.6511 42.7314 23.2109C42.275 22.7707 41.778 22.3074 41.0874 22.2306C40.5394 22.1698 40.0454 22.4753 39.6956 22.8561C39.526 23.04 39.3758 23.2413 39.2227 23.4382C39.1611 23.5164 39.2722 23.3818 39.1897 23.4788C39.1581 23.515 39.1281 23.5512 39.0951 23.5859C38.99 23.7018 38.8819 23.8132 38.7693 23.9218C38.6702 24.0174 38.5696 24.1101 38.4645 24.1984C38.3309 24.3099 38.2963 24.336 38.1777 24.4142C37.915 24.5865 37.7213 24.6835 37.4601 24.7559C37.3925 24.7747 37.3234 24.7892 37.2544 24.8037C37.2514 24.8037 37.1598 24.821 37.2183 24.8109C37.2814 24.8008 37.1673 24.8167 37.1538 24.8167C37.0142 24.8283 36.8775 24.8239 36.7394 24.8167C36.7214 24.8167 36.6283 24.8037 36.7244 24.8167C36.6974 24.8123 36.6703 24.808 36.6433 24.8037C36.5803 24.7921 36.5172 24.779 36.4541 24.7631C36.3911 24.7472 36.3295 24.7298 36.268 24.7095C36.2334 24.698 36.1974 24.6864 36.1629 24.6733C36.1479 24.6676 36.0368 24.6212 36.1163 24.656C35.9962 24.6038 35.8791 24.5445 35.7665 24.4793C35.6659 24.4214 35.5023 24.3128 35.4482 24.2708C35.2846 24.1448 35.0548 23.9189 34.8867 23.7307C34.8146 23.6496 34.8507 23.6902 34.8672 23.709C34.8432 23.68 34.8206 23.6496 34.7981 23.6192C34.7591 23.5671 34.7215 23.5135 34.6855 23.4585C34.6104 23.3456 34.5444 23.2297 34.4768 23.1124C34.3417 22.8735 34.1931 22.6245 33.9844 22.4391C33.7411 22.2219 33.4198 22.0742 33.082 22.096C32.6977 22.1206 32.3884 22.3074 32.1076 22.5477C31.5807 22.9966 31.0882 23.4904 30.5822 23.9609C30.3465 24.1796 30.1153 24.404 29.8646 24.6082C29.755 24.6965 29.7279 24.7182 29.5898 24.8051C29.5313 24.8413 29.4712 24.8761 29.4097 24.9079C29.3751 24.9253 29.3391 24.9427 29.3046 24.9586C29.3586 24.9354 29.297 24.9615 29.276 24.9687C29.2115 24.989 29.1469 25.0093 29.0793 25.0238C29.0673 25.0266 28.9487 25.044 29.0088 25.0368C29.0628 25.031 28.9652 25.0368 28.9652 25.0368C28.9412 25.0368 28.7385 25.0295 28.8331 25.0411C28.7596 25.0324 28.686 25.0136 28.6154 24.9919C28.5884 24.9847 28.5629 24.9745 28.5358 24.9658C28.4473 24.9369 28.5989 24.9962 28.5148 24.9586C28.4548 24.9311 28.3962 24.9007 28.3392 24.8688C28.192 24.7834 28.162 24.7588 28.0599 24.669C27.9578 24.5792 27.8647 24.4851 27.7777 24.3852C27.7701 24.378 27.6966 24.2882 27.7311 24.3316C27.7626 24.3722 27.6981 24.2882 27.7011 24.2911C27.6425 24.2129 27.587 24.1332 27.5329 24.0536C27.3573 23.7944 27.1966 23.5266 27.0074 23.2775C26.6186 22.7606 26.0976 22.2639 25.422 22.1336C24.7464 22.0033 24.1203 22.2379 23.6053 22.6679C23.3981 22.8417 23.2195 23.0429 23.0513 23.2514C22.9462 23.3803 22.8441 23.5121 22.742 23.6438C22.6399 23.7756 22.6234 23.8017 22.5303 23.9117C22.4432 24.0145 22.3532 24.1144 22.2586 24.2085C22.212 24.2563 22.1625 24.3012 22.1129 24.3461C22.0874 24.3693 21.9553 24.4779 22.0063 24.4388C21.9027 24.517 21.7886 24.5807 21.6715 24.6386C21.5739 24.6878 21.628 24.6574 21.652 24.6487C21.6175 24.6618 21.5814 24.6733 21.5454 24.6835C21.4733 24.7052 21.3983 24.724 21.3247 24.7327C21.4043 24.724 21.2361 24.7313 21.2121 24.7313C21.1851 24.7313 21.0109 24.7139 21.1055 24.7284C20.9914 24.711 20.7962 24.6545 20.7347 24.6299C20.6731 24.6053 20.511 24.5199 20.4104 24.459C20.2782 24.3794 20.1611 24.2954 20.0816 24.2332C19.8534 24.0522 19.6417 23.8523 19.433 23.6496C19.2243 23.4469 18.8504 23.4426 18.6372 23.6496C18.424 23.8567 18.4225 24.2085 18.6372 24.4171L18.6297 24.4156Z" fill="#2E3553"/>
<path d="M43.3455 47.1618C43.5362 44.2296 43.7253 41.296 43.9175 38.3639C44.1037 35.4984 44.3004 32.6314 44.6487 29.7789C44.8409 28.2006 45.0841 26.6267 45.3964 25.0571C45.4519 24.779 45.3153 24.4576 45.003 24.3895C44.7253 24.3287 44.3694 24.4706 44.3109 24.7689C43.7388 27.6344 43.3965 30.5391 43.1488 33.4466C42.9011 36.3541 42.7329 39.2674 42.5437 42.1793C42.4356 43.8401 42.3275 45.5009 42.2194 47.1618C42.2014 47.4456 42.4912 47.7178 42.7825 47.7048C43.1038 47.6903 43.326 47.4658 43.3455 47.1618Z" fill="#2E3553"/>
<path d="M42.7359 49.3279V49.2845C42.7389 49.2092 42.7224 49.1397 42.6879 49.076C42.6654 49.0094 42.6263 48.95 42.5708 48.9008C42.5197 48.8472 42.4597 48.811 42.3891 48.7878C42.3215 48.7545 42.2495 48.7386 42.1729 48.7415L42.0228 48.7603C41.9267 48.7864 41.8441 48.8327 41.775 48.8993L41.6865 49.0094C41.6354 49.0934 41.6099 49.186 41.6099 49.283V49.3265C41.6069 49.4018 41.6234 49.4713 41.6579 49.535C41.6804 49.6016 41.7195 49.661 41.775 49.7102C41.8261 49.7638 41.8861 49.8 41.9567 49.8231C42.0243 49.8564 42.0963 49.8724 42.1729 49.8695L42.323 49.8506C42.4191 49.8246 42.5017 49.7783 42.5708 49.7116L42.6593 49.6016C42.7104 49.5176 42.7359 49.4249 42.7359 49.3279Z" fill="#2E3553"/>
<path d="M18.8925 47.0575C20.0005 47.0257 21.11 46.9938 22.218 46.9619C22.5123 46.9533 22.7946 46.7187 22.7811 46.419C22.7675 46.1192 22.5333 45.8673 22.218 45.876C21.11 45.9078 20.0005 45.9397 18.8925 45.9715C18.5982 45.9802 18.3159 46.2148 18.3295 46.5145C18.343 46.8143 18.5772 47.0662 18.8925 47.0575Z" fill="#2E3553"/>
<path d="M29.0028 48.9601C26.3934 48.9819 23.7825 49.0036 21.1731 49.0253L18.936 49.0441C18.6417 49.047 18.3595 49.2917 18.373 49.5871C18.3865 49.8825 18.6207 50.133 18.936 50.1301C21.5454 50.1084 24.1563 50.0867 26.7657 50.065L29.0028 50.0461C29.297 50.0432 29.5793 49.7985 29.5658 49.5031C29.5523 49.2078 29.3181 48.9573 29.0028 48.9601Z" fill="#2E3553"/>
<path d="M18.4376 24.0681C18.1133 27.0625 17.789 30.0569 17.4647 33.0513C17.1404 36.0457 16.8161 39.0401 16.4918 42.0345C16.4107 42.7875 16.3867 43.5447 16.3461 44.3006C16.3056 45.0564 16.2651 45.8123 16.2245 46.5681C16.184 47.3239 16.1449 48.0552 16.1044 48.7994L16.0443 49.9144C16.0263 50.2402 15.9993 50.5703 16.0293 50.8975C16.0939 51.5955 16.4032 52.2137 17.0428 52.5801C17.5683 52.8798 18.2018 52.9696 18.8024 52.987C19.5231 53.0087 20.2482 52.9855 20.9689 52.9899C21.7346 52.9956 22.5003 53 23.266 52.9841C24.8334 52.9493 26.3994 52.8957 27.9668 52.8784C29.5117 52.861 31.0582 52.861 32.6031 52.8697C35.7335 52.8885 38.8639 52.9479 41.9942 52.9942C43.5076 53.0174 45.021 53.0333 46.5329 53.0507C47.5043 53.0608 48.6364 53.0608 49.375 52.3513C49.8345 51.9097 50.0026 51.2914 50.0401 50.6832C50.0852 49.9462 49.9591 49.1918 49.893 48.4577C49.7564 46.9648 49.6213 45.472 49.4846 43.9806C49.2114 40.9833 48.9381 37.9845 48.6664 34.9872C48.3931 31.9899 48.1199 28.9912 47.8481 25.9939C47.7821 25.2627 47.7145 24.5314 47.6484 23.8002C47.6304 23.6047 47.5524 23.4339 47.3692 23.3311C47.2085 23.2399 46.9593 23.2196 46.8002 23.3311C46.6996 23.402 46.599 23.4715 46.4984 23.5425C46.2522 23.7148 46.132 24.0145 46.2957 24.2853C46.4368 24.5184 46.8182 24.6531 47.0659 24.4808C47.1665 24.4098 47.2671 24.3403 47.3677 24.2694L46.5209 23.8002C46.7897 26.7497 47.0584 29.6992 47.3271 32.6502C47.5944 35.5881 47.8616 38.5261 48.1289 41.464C48.2625 42.9366 48.3976 44.4092 48.5313 45.8803C48.5973 46.6086 48.6634 47.337 48.7294 48.0653C48.7955 48.7936 48.8871 49.5089 48.9156 50.2329C48.9276 50.5587 48.9216 50.8555 48.8285 51.1596C48.812 51.2132 48.794 51.2653 48.773 51.3174C48.8195 51.2045 48.7445 51.3638 48.7309 51.3884C48.7069 51.4304 48.6709 51.4695 48.6499 51.5129C48.6198 51.5766 48.7159 51.455 48.6604 51.4999C48.6349 51.5202 48.6138 51.5506 48.5913 51.5737C48.5583 51.6056 48.5162 51.6331 48.4877 51.6664C48.4412 51.72 48.5703 51.6215 48.5057 51.6519C48.4892 51.6606 48.4727 51.6751 48.4562 51.6852C48.4111 51.7142 48.3646 51.7403 48.3181 51.7634C48.267 51.7895 48.1529 51.8257 48.267 51.7895C48.1679 51.8199 48.0703 51.8561 47.9682 51.8793C47.9202 51.8908 47.8706 51.901 47.8211 51.9097C47.7881 51.9155 47.6109 51.9415 47.68 51.9328C47.7595 51.9241 47.6004 51.9401 47.5779 51.943C47.5178 51.9488 47.4578 51.9531 47.3977 51.956C47.2761 51.9632 47.1545 51.9661 47.0329 51.9676C46.8047 51.9705 46.5765 51.9676 46.3482 51.9647C45.581 51.9574 44.8138 51.9488 44.0466 51.9401C40.9913 51.901 37.936 51.8402 34.8807 51.8054C31.8254 51.7707 28.7731 51.7634 25.7208 51.8315C24.1954 51.8662 22.6745 51.9184 21.149 51.9082C20.4179 51.9039 19.6867 51.9126 18.954 51.9082C18.8219 51.9082 18.6898 51.9024 18.5577 51.8937C18.4871 51.8879 18.4165 51.8822 18.346 51.8735C18.2754 51.8648 18.3535 51.8735 18.364 51.8749C18.3204 51.8677 18.2769 51.8619 18.2334 51.8532C18.1057 51.83 17.9796 51.7996 17.8565 51.7591C17.825 51.7489 17.7935 51.7374 17.7604 51.7258C17.7694 51.7287 17.8385 51.7591 17.7784 51.733C17.7109 51.7026 17.6448 51.6707 17.5818 51.6331C17.5532 51.6172 17.5277 51.5984 17.4992 51.581C17.4917 51.5766 17.4301 51.5288 17.4782 51.5665C17.5307 51.6085 17.4526 51.5433 17.4421 51.5317C17.4196 51.51 17.3956 51.4869 17.3731 51.4651C17.3551 51.4478 17.34 51.4304 17.3235 51.4116C17.3866 51.4854 17.3325 51.4217 17.3235 51.4043C17.3055 51.3725 17.2845 51.3406 17.265 51.3102L17.2364 51.2566C17.247 51.287 17.247 51.2841 17.2334 51.2494C17.1223 50.9728 17.1268 50.7629 17.1359 50.4414C17.1569 49.7145 17.2109 48.9877 17.25 48.2608C17.328 46.7969 17.4076 45.333 17.4857 43.8705C17.5262 43.1248 17.5698 42.3835 17.6508 41.6407L17.888 39.4484C18.0472 37.9758 18.2063 36.5018 18.367 35.0292C18.6853 32.0942 19.0021 29.1606 19.3204 26.2256L19.5531 24.0695C19.5831 23.7857 19.2723 23.515 18.9901 23.5266C18.6583 23.541 18.4601 23.7655 18.427 24.0695L18.4376 24.0681Z" fill="#2E3553"/>
</svg>
