<svg width="89" height="33" viewBox="0 0 89 33" fill="none" xmlns="http://www.w3.org/2000/svg">
<path d="M8.2756 24.39C6.38627 24.39 4.80027 23.9913 3.5176 23.194C2.25227 22.3967 1.3596 21.2873 0.839601 19.866L4.8176 17.552C5.4936 19.164 6.6896 19.97 8.4056 19.97C9.82694 19.97 10.5376 19.5627 10.5376 18.748C10.5376 18.228 10.1303 17.7947 9.3156 17.448C9.03827 17.344 8.2756 17.11 7.0276 16.746C5.2596 16.2433 3.91627 15.5413 2.9976 14.64C2.07893 13.7387 1.6196 12.5427 1.6196 11.052C1.6196 9.37067 2.2176 8.01 3.4136 6.97C4.64427 5.93 6.15227 5.41 7.9376 5.41C9.46293 5.41 10.8149 5.774 11.9936 6.502C13.1723 7.21267 14.0736 8.23533 14.6976 9.57L10.7976 11.858C10.2256 10.506 9.28094 9.83 7.9636 9.83C7.42627 9.83 7.01027 9.94267 6.7156 10.168C6.42093 10.376 6.2736 10.662 6.2736 11.026C6.2736 11.4247 6.4816 11.7627 6.8976 12.04C7.33093 12.3173 8.16293 12.638 9.3936 13.002C10.3123 13.2793 11.0229 13.522 11.5256 13.73C12.0976 13.9727 12.6869 14.302 13.2936 14.718C14.5589 15.55 15.1916 16.876 15.1916 18.696C15.1916 20.4813 14.5589 21.8767 13.2936 22.882C12.0283 23.8873 10.3556 24.39 8.2756 24.39ZM23.8486 10.636C25.2873 10.636 26.4399 11.13 27.3066 12.118C28.1906 13.0887 28.6326 14.458 28.6326 16.226V24H24.3166V16.772C24.3166 16.1133 24.1433 15.6107 23.7966 15.264C23.4499 14.9 22.9733 14.718 22.3666 14.718C21.6906 14.718 21.1619 14.926 20.7806 15.342C20.4166 15.7407 20.2346 16.3213 20.2346 17.084V24H15.9186V5.8H20.2346V12.3C21.0146 11.1907 22.2193 10.636 23.8486 10.636ZM39.2178 12.196V11H43.5338V24H39.2178V22.804C38.3338 23.844 37.1032 24.364 35.5258 24.364C33.7752 24.364 32.3192 23.714 31.1578 22.414C29.9965 21.0967 29.4158 19.4587 29.4158 17.5C29.4158 15.524 29.9965 13.8947 31.1578 12.612C32.3192 11.2947 33.7752 10.636 35.5258 10.636C37.1032 10.636 38.3338 11.156 39.2178 12.196ZM34.5118 19.554C34.9972 20.074 35.6558 20.334 36.4878 20.334C37.3198 20.334 37.9785 20.074 38.4638 19.554C38.9665 19.0167 39.2178 18.332 39.2178 17.5C39.2178 16.668 38.9665 15.9833 38.4638 15.446C37.9785 14.926 37.3198 14.666 36.4878 14.666C35.6558 14.666 34.9972 14.926 34.5118 15.446C34.0092 15.9833 33.7578 16.668 33.7578 17.5C33.7578 18.332 34.0092 19.0167 34.5118 19.554ZM49.4419 11V13.418C49.6846 12.586 50.1613 11.936 50.8719 11.468C51.5999 10.9827 52.4233 10.74 53.3419 10.74V15.524C52.3539 15.368 51.4526 15.55 50.6379 16.07C49.8406 16.59 49.4419 17.4393 49.4419 18.618V24H45.1259V11H49.4419ZM62.0755 10.636C63.8088 10.636 65.2562 11.2947 66.4175 12.612C67.5962 13.9293 68.1855 15.5587 68.1855 17.5C68.1855 19.4413 67.5962 21.0793 66.4175 22.414C65.2388 23.714 63.7915 24.364 62.0755 24.364C60.4982 24.364 59.2675 23.844 58.3835 22.804V24H54.0675V5.8H58.3835V12.196C59.2675 11.156 60.4982 10.636 62.0755 10.636ZM59.1375 19.554C59.6402 20.074 60.2988 20.334 61.1135 20.334C61.9282 20.334 62.5868 20.074 63.0895 19.554C63.5922 19.0167 63.8435 18.332 63.8435 17.5C63.8435 16.668 63.5922 15.9833 63.0895 15.446C62.5868 14.926 61.9282 14.666 61.1135 14.666C60.2988 14.666 59.6402 14.926 59.1375 15.446C58.6348 15.9833 58.3835 16.668 58.3835 17.5C58.3835 18.332 58.6348 19.0167 59.1375 19.554ZM73.4696 24H69.1536V5.02H73.4696V24ZM87.8409 19.086H78.8709C79.3042 20.1433 80.2749 20.672 81.7829 20.672C82.7016 20.672 83.4902 20.3687 84.1489 19.762L87.2689 21.946C86.0036 23.558 84.1402 24.364 81.6789 24.364C79.4776 24.364 77.7096 23.7227 76.3749 22.44C75.0576 21.14 74.3989 19.502 74.3989 17.526C74.3989 15.5673 75.0489 13.9293 76.3489 12.612C77.6489 11.2947 79.3042 10.636 81.3149 10.636C83.2562 10.636 84.8596 11.286 86.1249 12.586C87.3902 13.8687 88.0229 15.498 88.0229 17.474C88.0229 18.0807 87.9622 18.618 87.8409 19.086ZM78.8189 16.096H83.8109C83.4816 14.8827 82.6669 14.276 81.3669 14.276C80.0322 14.276 79.1829 14.8827 78.8189 16.096Z" fill="#48BFAA"/>
</svg>
